<svg width="24" height="24" viewBox="0 0 24 24" xmlns="http://www.w3.org/2000/svg">
    <g fill="none" fill-rule="evenodd">
        <path d="M13.313 19.96v1.368l-.019.005a7.463 7.463 0 0 1-2.314.072v-1.446h2.333zm4.774-1.777a7.525 7.525 0 0 1-4.524 3.094l-.249.05 4.773-3.144zm-1.468-7.195c1.557 0 2.82 1.279 2.82 2.857 0 1.579-1.263 2.858-2.82 2.858v-5.715zm-9.4 0v5.715c-1.556 0-2.819-1.28-2.819-2.858s1.263-2.857 2.82-2.857z" fill="#FFF3ED"/>
        <path d="M18.316 17.85c.18.127.226.38.1.564a7.93 7.93 0 0 1-5.06 3.318 7.8 7.8 0 0 1-2.425.075.404.404 0 0 1-.351-.402V19.96c0-.223.179-.405.4-.405h2.333c.22 0 .4.182.4.405v.861a7.137 7.137 0 0 0 4.046-2.868.397.397 0 0 1 .557-.102zm-5.403 2.515H11.38v.673c.51.037 1.03.02 1.533-.054v-.62zM4 10.033C4 5.603 7.553 2 11.92 2c4.366 0 7.919 3.604 7.919 8.033v3.812c0 1.8-1.444 3.264-3.22 3.264-.22 0-.4-.182-.4-.406v-5.715c0-.224.18-.406.4-.406.964 0 1.83.431 2.42 1.113v-1.662c0-3.982-3.194-7.222-7.12-7.222-3.925 0-7.119 3.24-7.119 7.222v1.663a3.194 3.194 0 0 1 2.42-1.114c.22 0 .4.182.4.406v5.715c0 .224-.18.406-.4.406-1.775 0-3.22-1.464-3.22-3.264v-3.812zm2.82 1.393a2.446 2.446 0 0 0-2.02 2.42c0 1.213.875 2.225 2.02 2.418v-4.838zm10.2 0v4.838a2.447 2.447 0 0 0 2.02-2.419l-.001-.008-.001-.021-.004-.143a2.446 2.446 0 0 0-2.015-2.247z" fill="#FF8B4F"/>
    </g>
</svg>
