<svg width="24" height="24" viewBox="0 0 24 24" xmlns="http://www.w3.org/2000/svg">
    <g fill="none" fill-rule="evenodd">
        <path d="M19.016 6.384V8.82h2.5v9.606H4.9v-2.438H2.4V6.385h16.616z" fill="#FEF7E5"/>
        <path d="M19.017 6c.22 0 .4.172.4.384l-.001 1.981H21.6c.22 0 .4.172.4.384v9.606c0 .211-.18.383-.4.383H4.983c-.22 0-.4-.172-.4-.383v-1.982H2.4c-.22 0-.4-.172-.4-.383V6.384C2 6.172 2.18 6 2.4 6h16.617zM21.2 9.132h-1.784v6.858c0 .211-.178.383-.4.383H5.384v1.598H21.2V9.132zm-2.583-2.365H2.8v8.839h15.817V6.767zm-12.72 7.238c.221 0 .4.172.4.383 0 .212-.179.384-.4.384H4.149c-.22 0-.4-.172-.4-.384 0-.211.18-.383.4-.383h1.75zm4.81-5.603c1.668 0 3.024 1.249 3.024 2.784 0 1.536-1.356 2.786-3.023 2.786s-3.023-1.25-3.023-2.786c0-1.535 1.356-2.784 3.023-2.784zm0 .767c-1.225 0-2.222.905-2.222 2.017 0 1.113.997 2.019 2.223 2.019 1.225 0 2.223-.906 2.223-2.019 0-1.112-.998-2.017-2.223-2.017zm5.834-.991c.22 0 .4.172.4.383 0 .212-.18.384-.4.384h-1.508c-.221 0-.4-.172-.4-.384 0-.211.179-.383.4-.383h1.508z" fill="#FBB800"/>
    </g>
</svg>
