<svg width="24" height="24" viewBox="0 0 24 24" xmlns="http://www.w3.org/2000/svg">
    <g fill="none" fill-rule="evenodd">
        <path d="M2.132 9.719h19.392v-1.61c0-.888-.741-1.61-1.656-1.61H4.132c-.914 0-1.656.722-1.656 1.61v8.782c0 .889.742 1.609 1.656 1.609h15.736c.915 0 1.656-.72 1.656-1.61V9.72" fill="#E6F9F5"/>
        <path d="M19.868 6C21.044 6 22 6.947 22 8.11v8.78c0 1.164-.956 2.11-2.132 2.11H4.132C2.956 19 2 18.054 2 16.89V8.11C2 6.947 2.956 6 4.132 6h15.736zm1.18 4.219H2.952v6.672c0 .61.53 1.109 1.18 1.109h15.736c.65 0 1.18-.498 1.18-1.11V10.22zm-13.82 3.627c.264 0 .477.224.477.5s-.213.5-.476.5h-2.52a.489.489 0 0 1-.475-.5c0-.276.213-.5.476-.5h2.519zm5.038-2.082c.263 0 .476.224.476.5s-.213.5-.476.5H4.71a.489.489 0 0 1-.476-.5c0-.276.213-.5.476-.5h7.556zM19.868 7H4.132c-.65 0-1.18.498-1.18 1.11v1.109h18.096v-1.11c0-.611-.53-1.11-1.18-1.11z" fill="#0BC9A2"/>
    </g>
</svg>
