<svg width="24" height="24" viewBox="0 0 24 24" xmlns="http://www.w3.org/2000/svg">
    <g fill="none" fill-rule="evenodd">
        <path d="M17.465 4.5c.463 0 .841.397.841.882V9.54l-.025.048c.568.602.933 1.537.933 2.587 0 1.233-.504 2.307-1.249 2.87l-.045.032.046.297c.087.825.184 1.047.184 1.047s1.294.538 2.394.922c1.125.392.988 1.888.959 2.124l-.004.032h-9.54l-.005-.032c-.029-.236-.166-1.732.958-2.124 1.1-.384 2.394-.922 2.394-.922l.16-.848.025-.199.078-.334a2.44 2.44 0 0 1-.12-.099l-.148.28H3.318c-.463 0-.842-.396-.842-.881V5.38c0-.484.379-.881.842-.881h14.147z" fill="#F5E9F7"/>
        <path d="M17.465 4c.726 0 1.318.62 1.318 1.382v4.051c.558.69.906 1.665.906 2.743 0 1.286-.496 2.425-1.253 3.11v.009c.04.373.08.61.109.752.413.169 1.34.54 2.15.823 1.272.443 1.39 1.966 1.274 2.711a.484.484 0 0 1-.47.419h-9.54a.483.483 0 0 1-.47-.42c-.116-.744.003-2.267 1.274-2.71a48.523 48.523 0 0 0 2.127-.814l.063-.335H3.318c-.727 0-1.318-.62-1.318-1.38V5.38C2 4.62 2.59 4 3.318 4h14.147zm-1.558 11.808-.134.712a.495.495 0 0 1-.291.367c-.054.022-1.319.548-2.42.932-.526.183-.641.77-.653 1.181h8.64c-.014-.411-.128-.998-.655-1.181-1.1-.384-2.365-.91-2.42-.932a.48.48 0 0 1-.256-.256c-.031-.071-.104-.278-.175-.787a2.26 2.26 0 0 1-1.636-.036zm.864-6.422c-1.085 0-1.966 1.25-1.966 2.79 0 1.052.412 1.97 1.02 2.445.01.004.019.01.027.017l.121.088a1.723 1.723 0 0 0 .066.041l-.029-.019c.234.14.492.218.761.218.304 0 .592-.099.85-.274.001-.003.003-.004.004-.005l.025-.016c.644-.458 1.087-1.405 1.087-2.495 0-1.54-.881-2.79-1.966-2.79zM17.465 5H3.318a.374.374 0 0 0-.366.382v8.959c0 .21.164.38.366.38H14.61c-.471-.673-.759-1.566-.759-2.545 0-2.09 1.31-3.79 2.92-3.79.373 0 .73.091 1.059.258V5.382A.374.374 0 0 0 17.464 5zm-5.201 1.598a.465.465 0 0 1 .384.154c.099.11.145.26.126.41l-.263 2.096a.485.485 0 0 1-.534.431.497.497 0 0 1-.41-.56l.09-.73-2.146 2.261a.458.458 0 0 1-.567.085L7.52 9.925 4.23 13.218a.464.464 0 0 1-.673-.017.517.517 0 0 1 .015-.707l3.544-3.546a.456.456 0 0 1 .558-.076l1.415.816 1.878-1.977-.703.06a.491.491 0 0 1-.513-.458.493.493 0 0 1 .437-.539l2.076-.176z" fill="#9D27B0"/>
    </g>
</svg>
