<svg width="24" height="24" viewBox="0 0 24 24" xmlns="http://www.w3.org/2000/svg">
    <g fill="#FFF" fill-rule="evenodd">
        <path d="M20.148 16.048c-.043.978-.207 1.505-.344 1.856a3.318 3.318 0 0 1-1.9 1.9c-.351.137-.882.301-1.855.344-1.055.046-1.372.058-4.041.058-2.67 0-2.99-.012-4.041-.058-.977-.043-1.504-.207-1.856-.344a3.069 3.069 0 0 1-1.15-.747 3.102 3.102 0 0 1-.745-1.149c-.137-.35-.301-.882-.344-1.856-.047-1.055-.058-1.37-.058-4.04s.01-2.99.058-4.04c.043-.979.207-1.506.344-1.858.16-.433.414-.828.75-1.148a3.125 3.125 0 0 1 1.149-.747c.352-.137.884-.3 1.856-.344 1.055-.047 1.372-.058 4.04-.058 2.674 0 2.99.011 4.042.058.977.043 1.504.207 1.856.344.434.161.828.415 1.149.747.332.324.586.715.746 1.148.137.352.3.883.344 1.857.047 1.055.059 1.371.059 4.041 0 2.67-.012 2.981-.06 4.036m1.803-8.167c-.047-1.062-.22-1.794-.466-2.427a4.865 4.865 0 0 0-1.156-1.774 4.923 4.923 0 0 0-1.77-1.153c-.638-.246-1.364-.417-2.427-.464C15.06 2.013 14.72 2 12.004 2c-2.716 0-3.056.012-4.123.06-1.063.046-1.793.217-2.426.464A4.865 4.865 0 0 0 3.68 3.68a4.91 4.91 0 0 0-1.153 1.77c-.246.637-.418 1.365-.465 2.427C2.012 8.947 2 9.287 2 12.004c0 2.716.01 3.056.058 4.122.047 1.064.219 1.794.465 2.427a4.91 4.91 0 0 0 1.157 1.774c.5.508 1.106.903 1.77 1.153.637.247 1.364.42 2.426.464 1.067.048 1.408.06 4.124.06 2.715 0 3.055-.012 4.122-.06 1.063-.045 1.794-.217 2.427-.464a5.117 5.117 0 0 0 2.927-2.927c.246-.637.418-1.363.465-2.427.047-1.066.059-1.406.059-4.122 0-2.717-.005-3.057-.051-4.123"/>
        <path d="M12.004 15.337a3.333 3.333 0 1 1 0-6.666 3.333 3.333 0 0 1 0 6.666m0-8.473a5.14 5.14 0 0 0 0 10.28 5.14 5.14 0 0 0 0-10.28M18.546 6.662a1.2 1.2 0 1 1-2.4 0 1.2 1.2 0 0 1 2.4 0"/>
    </g>
</svg>
