<svg width="24" height="24" viewBox="0 0 24 24" xmlns="http://www.w3.org/2000/svg">
    <path d="M19.002 19.003h-3.004v-5.304c0-.8-.697-1.499-1.498-1.499-.802 0-1.5.699-1.5 1.499v5.304H9.998V9.998h3.004v1.2c.497-.8 1.596-1.4 2.5-1.4 1.899 0 3.501 1.602 3.501 3.502v5.703zM6.502 8.299A1.794 1.794 0 0 1 4.7 6.503C4.7 5.5 5.5 4.7 6.502 4.7c.995 0 1.796.801 1.796 1.803 0 .994-.8 1.796-1.796 1.796zM4.997 19.003h3.004V9.998H4.997v9.005zM19.997 2H4.002A2.005 2.005 0 0 0 2 4.003v15.994C2 21.101 2.898 22 4.002 22h15.995A2.005 2.005 0 0 0 22 19.997V4.003A2.005 2.005 0 0 0 19.997 2z" fill="#FFF" fill-rule="evenodd"/>
</svg>
