<svg width="40" height="40" viewBox="0 0 40 40" xmlns="http://www.w3.org/2000/svg">
    <g fill="none" fill-rule="evenodd">
        <path d="M0 0h40v40H0z"/>
        <path d="M33.333 3.333a3.333 3.333 0 0 1 3.334 3.334v25A3.333 3.333 0 0 1 33.333 35h-1.666v.833a.833.833 0 0 1-1.667 0V35H10v.833a.833.833 0 1 1-1.667 0V35H6.667a3.333 3.333 0 0 1-3.334-3.333v-25a3.333 3.333 0 0 1 3.334-3.334h26.666zm0 1.667H6.667c-.855 0-1.56.643-1.656 1.472L5 6.667v25c0 .854.643 1.559 1.472 1.655l.195.011h26.666c.855 0 1.56-.643 1.656-1.472l.011-.194v-25c0-.855-.643-1.56-1.472-1.656L33.333 5zM30 6.667A3.333 3.333 0 0 1 33.333 10v18.333A3.333 3.333 0 0 1 30 31.667H11.667a3.333 3.333 0 0 1-3.334-3.334v-1.666c-.92 0-1.666-.747-1.666-1.667v-3.333c0-.92.746-1.667 1.666-1.667v-1.667c-.92 0-1.666-.746-1.666-1.666v-3.334c0-.92.746-1.666 1.666-1.666V10a3.333 3.333 0 0 1 3.334-3.333H30zm0 1.666H11.667c-.855 0-1.56.644-1.656 1.473L10 10v1.667c.92 0 1.667.746 1.667 1.666v3.334c0 .92-.747 1.666-1.667 1.666V20c.92 0 1.667.746 1.667 1.667V25c0 .92-.747 1.667-1.667 1.667v1.666c0 .855.643 1.56 1.472 1.656l.195.011H30c.855 0 1.56-.643 1.655-1.472l.012-.195V10c0-.855-.644-1.56-1.473-1.655L30 8.333zm-8.333 2.5a8.333 8.333 0 1 1 0 16.667 8.333 8.333 0 0 1 0-16.667zm-2.897 12.41-1.192 1.19a6.634 6.634 0 0 0 3.256 1.349v-1.684a4.973 4.973 0 0 1-2.064-.856zm5.794 0a4.973 4.973 0 0 1-2.063.854v1.685a6.634 6.634 0 0 0 3.254-1.35l-1.191-1.19zM10 21.666H8.333V25H10v-3.333zM16.736 20h-1.684a6.634 6.634 0 0 0 1.349 3.254l1.19-1.191A4.973 4.973 0 0 1 16.736 20zm11.546 0h-1.685a4.973 4.973 0 0 1-.855 2.063l1.19 1.191a6.634 6.634 0 0 0 1.35-3.254zm-6.615-4.168a3.333 3.333 0 1 0 0 6.667 3.333 3.333 0 0 0 0-6.667zm5.266-.755-1.19 1.192c.428.602.727 1.304.855 2.064h1.684a6.634 6.634 0 0 0-1.35-3.256zm-10.532 0a6.634 6.634 0 0 0-1.35 3.256h1.685c.127-.76.426-1.462.855-2.064l-1.19-1.192zM10 13.333H8.333v3.334H10v-3.334zm10.834-.781a6.634 6.634 0 0 0-3.256 1.349l1.192 1.19a4.973 4.973 0 0 1 2.064-.855v-1.684zm1.667 0v1.684c.76.128 1.46.426 2.063.855l1.191-1.19a6.634 6.634 0 0 0-3.254-1.35z" fill="#09161E"/>
    </g>
</svg>
