<svg xmlns="http://www.w3.org/2000/svg" width="24" height="24" viewBox="0 0 24 24">
    <g fill="none" fill-rule="evenodd">
        <path d="M0 0H24V24H0z"/>
        <path fill="#09161E" d="M21.524 2c.263 0 .476.213.476.476v13.055c0 .263-.213.477-.476.477l-8.97-.001v2.023l3.96 3.12c.206.162.241.462.079.669-.094.12-.234.181-.374.181-.103 0-.208-.033-.295-.102l-3.846-3.031-3.846 3.031c-.207.161-.506.128-.668-.079-.163-.207-.128-.507.079-.67l3.958-3.12v-2.022H2.476c-.263 0-.476-.213-.476-.476V2.476C2 2.213 2.213 2 2.476 2h19.048zm-.476.952H2.952v12.103h18.096V2.952zM18.9 6.168c.214.152.264.45.111.664l-2.899 4.08c-.08.113-.206.185-.345.198-.14.013-.278-.037-.376-.135l-1.29-1.27-1.738 2.054c-.092.108-.225.169-.364.169h-.025c-.15-.009-.285-.086-.37-.21L9.48 8.578 8.228 10.12c-.09.112-.226.176-.37.176H5.374c-.263 0-.476-.213-.476-.476 0-.264.213-.476.476-.476h2.257L9.146 7.48c.095-.117.245-.183.39-.176.15.007.289.084.374.209l2.132 3.151 1.665-1.968c.085-.101.21-.161.342-.168.13-.007.26.044.355.137l1.258 1.24 2.575-3.625c.153-.214.45-.264.664-.112z"/>
    </g>
</svg>
