<?xml version="1.0" encoding="UTF-8"?>
<svg id="Capa_1" data-name="Capa 1" xmlns="http://www.w3.org/2000/svg" version="1.1" viewBox="0 0 103.5 13.9">
  <defs>
    <style>
      .cls-1 {
        fill: #fff;
        stroke-width: 0px;
      }
    </style>
  </defs>
  <path class="cls-1" d="M35.2,5.3c0-.4-.1-.8-.3-1.2l-1.9-3.3c-.2-.3-.2-.5-.3-.8h0c-.5,1-.5,2,0,2.8l1.5,2.6c.5.8.5,1.8,0,2.6h0c0-.1-.2-.4-.3-.7l-1.4-2.4-.9-1.5c-.2-.3-.2-.5-.3-.8h0c-.5,1-.5,2,0,2.8l1.5,2.6c.5.8.5,1.8,0,2.6h0c0-.1-.2-.4-.3-.7l-1.9-3.3c-.3-.4-.4-1-.3-1.4-2,.5-3.5,1.7-3.5,3s2.7,3.3,6.1,3.3,6.1-1.5,6.1-3.3c-.1-1.3-1.5-2.5-3.5-3M41,11c0-.5,0-.8.2-1.2.6.3,1.5.4,2.1.4,1.1,0,1.7-.3,1.7-1s-.4-1-1.5-1.5l-.6-.3c-1.1-.5-1.8-1.1-1.8-2.3s.9-2.1,2.7-2.1,1.5.1,2.1.3c0,.4-.1.8-.2,1.1-.6-.2-1.3-.3-1.9-.3-1,0-1.5.4-1.5,1s.4,1,1.2,1.3l.6.3c1.5.6,2.1,1.3,2.1,2.4s-1,2.2-2.9,2.2c-.9,0-1.7-.1-2.3-.4M52.4,5.5v5.7h-1.2v-.7c-.4.5-.9.8-1.7.8-1.5,0-2.5-1.1-2.5-3s1.1-3.2,3.2-3.2,1.5,0,2.2.3M51.1,9.9v-3.6c-.3,0-.6,0-.9,0-1.3,0-1.9.8-1.9,2.1s.5,2,1.6,2c.5,0,.9-.1,1.2-.4M58.8,7.4v3.9h-1.3v-3.6c0-.9-.3-1.3-1.6-1.3s-.7,0-1,0v4.9h-1.3v-5.7c.8-.2,1.7-.3,2.3-.3,2.1,0,2.8.8,2.8,2.2M62.3,10.3c.4,0,.7,0,1-.2,0,.3,0,.7-.2,1.1-.3.1-.7.2-1.1.2-1.2,0-2-.6-2-2V3.4c.4-.1.9-.2,1.3-.2v2.2h2c0,.4,0,.7-.1,1.1h-1.8v2.8c0,.7.3,1,1,1M69.1,5.5v5.7h-1.2v-.7c-.4.5-.9.8-1.7.8-1.5,0-2.5-1.1-2.5-3s1.1-3.2,3.2-3.2,1.5,0,2.2.3M67.8,9.9v-3.6c-.3,0-.6,0-.9,0-1.3,0-1.9.8-1.9,2.1s.5,2,1.6,2c.5,0,.9-.1,1.2-.4M75.5,7.4v3.9h-1.3v-3.6c0-.9-.3-1.3-1.6-1.3s-.7,0-1,0v4.9h-1.3v-5.7c.8-.2,1.7-.3,2.3-.3,2.1,0,2.8.8,2.8,2.2M81.9,3.2v8h-1.2v-.7c-.4.5-.9.9-1.7.9-1.5,0-2.5-1.1-2.5-3s1.1-3.2,3.2-3.2.6,0,1,0v-1.9c.4-.1.8-.2,1.2-.2M80.7,9.9v-3.5c-.3,0-.7-.1-1-.1-1.2,0-1.8.8-1.8,2.1s.5,2,1.6,2,.9-.2,1.3-.4M88.2,8.8h-4c.2,1,.8,1.5,1.9,1.5s1.4-.2,2-.4c0,.3-.1.8-.2,1.1-.6.3-1.2.4-1.8.4-2.1,0-3.1-1.2-3.1-3.1s.8-3.1,2.8-3.1,2.6,1.2,2.6,2.6,0,.6,0,1M84.2,7.7h2.8c0-1-.5-1.5-1.4-1.5-.9,0-1.3.5-1.5,1.5M92.6,5.2c0,.4,0,.8-.1,1.1-.3,0-.6,0-1,0s-.6,0-.9,0v4.9h-1.3v-5.7c.5-.2,1.5-.3,2.1-.3s.8,0,1.1,0M17.1,9c0,1.4-1,2.2-2.7,2.2h-2.5V3.2c.6-.1,1.3-.2,2-.2,2.1,0,3,.8,3,2.1s-.4,1.5-1.1,1.8c1,.3,1.5,1.1,1.5,2M13.8,3.9c-.3,0-.6,0-.9,0v2.7h1.3c.9,0,1.6-.4,1.6-1.4s-.5-1.3-2-1.3M16.1,8.9c0-.9-.7-1.4-1.8-1.4h-1.4v2.8h1.4c1.1,0,1.8-.4,1.8-1.4M23.1,5.5l-2.3,6.5c-.4,1.2-1,1.8-2.1,1.8s-.4,0-.5,0c0-.3,0-.6,0-.8.1,0,.2,0,.3,0,.7,0,1.1-.3,1.5-1.4l-2.3-6h1.1l1.7,4.8,1.6-4.8h1Z"/>
</svg>