<?xml version="1.0" encoding="UTF-8"?>
<svg width="24px" height="24px" viewBox="0 0 24 24" version="1.1" xmlns="http://www.w3.org/2000/svg" xmlns:xlink="http://www.w3.org/1999/xlink">
    <title>98D1CA8E-7C0D-401B-AFEA-4F4CB1631A05</title>
    <g id="e.-Icons" stroke="none" stroke-width="1" fill="none" fill-rule="evenodd">
        <g id="Primitives-Icons-Advantage" transform="translate(-426.000000, -224.000000)">
            <g id="Icon-container" transform="translate(384.000000, 195.000000)">
                <g id="Group-7" transform="translate(10.000000, 29.000000)">
                    <g id="a.-icons/d.-adventage/b.-colored/assistance/a.Light" transform="translate(32.000000, 0.000000)">
                        <g id="Assistance" transform="translate(4.000000, 2.000000)">
                            <path d="M6.36504286,0.400582752 C8.34351905,0.969382752 9.79661429,2.83498275 9.79661429,5.05498275 C9.79661429,7.17338275 8.47385238,8.96778275 6.63461429,9.62298275 L6.63461429,9.62298275 L6.63432857,14.7205828 L7.07070476,14.7207428 L7.07070476,11.5095428 L8.12470476,11.3039428 L11.5352286,14.8247428 L15.5820381,15.4375428 L11.3765619,17.5095428 C11.3765619,17.5095428 8.42260952,18.8151428 7.56532381,16.7679428 L7.56532381,16.7679428 L6.63432857,16.7675828 L6.63461429,18.0261828 C6.63461429,18.8474716 6.02373862,19.521763 5.24457931,19.5941494 L5.10542381,19.6005828 C4.2619,19.6005828 3.57785238,18.8957828 3.57785238,18.0261828 L3.57785238,18.0261828 L3.57785238,9.62698275 C1.73294762,8.97418275 0.405328571,7.17658275 0.405328571,5.05498275 C0.405328571,2.83498275 1.85923333,0.969382752 3.83770952,0.400582752 L3.83770952,0.400582752 L3.83770952,3.27498275 L5.10056667,4.69178275 L6.36504286,3.27498275 Z" id="Background/Asssistance" fill="#FEF7E5"></path>
                            <path d="M7.03961905,18.0260228 C7.03961905,19.1148228 6.17180952,20.0004228 5.10566667,20.0004228 C4.04033333,20.0004228 3.17252381,19.1148228 3.17252381,18.0260228 L3.17252381,9.89962275 C1.26366667,9.09962275 2.7533531e-14,7.18842275 2.7533531e-14,5.05482275 C2.7533531e-14,2.71882275 1.53161905,0.646822752 3.72461905,0.016422752 C3.84685714,-0.019577248 3.97880952,0.00442275195 4.08,0.080422752 C4.182,0.155622752 4.24271429,0.274822752 4.24271429,0.400422752 L4.24271429,3.12362275 L5.10080952,4.08682275 L5.96052381,3.12362275 L5.96052381,0.400422752 C5.96052381,0.274822752 6.02042857,0.155622752 6.12242857,0.080422752 C6.22361905,0.00522275195 6.35638095,-0.019577248 6.47780952,0.016422752 C8.67,0.646822752 10.201619,2.71882275 10.201619,5.05482275 C10.201619,7.18362275 8.942,9.09242275 7.03961905,9.89562275 L7.039,10.794 L8.04310476,10.5959428 C8.18072381,10.5703428 8.32077143,10.6135428 8.41629524,10.7127428 L11.8996762,14.3487428 L16.0096286,14.9767428 C16.2314381,15.0103428 16.3820095,15.2151428 16.3480095,15.4335428 C16.3172476,15.6303428 16.144819,15.7719428 15.9489143,15.7719428 C15.9286762,15.7719428 15.906819,15.7703428 15.886581,15.7671428 L11.639819,15.1183428 C11.5507714,15.1047428 11.4690095,15.0623428 11.4074857,14.9975428 L7.98239048,11.4231428 L7.039,11.609 L7.039,14.211 L7.53537143,14.2117028 C7.7588,14.2117028 7.94013333,14.3909028 7.94013333,14.6117028 C7.94013333,14.8325028 7.7588,15.0117028 7.53537143,15.0117028 L5.10113333,15.0117028 C4.74251429,15.0117028 4.45189524,15.3189028 4.45189524,15.6973028 C4.45189524,16.0757028 4.74251429,16.3829028 5.10113333,16.3829028 L7.53537143,16.3829028 C7.6705619,16.3829028 7.79684762,16.4501028 7.87213333,16.5613028 C7.9118,16.6181028 8.90265714,17.9981028 11.1976571,17.2957028 C11.4162286,17.2309028 11.6388476,17.3485028 11.704419,17.5589028 C11.7708,17.7701028 11.6518,17.9941028 11.4380857,18.0597028 C10.8835619,18.2293028 10.3881333,18.2981028 9.94937143,18.2981028 C8.49222857,18.2981028 7.6535619,17.5397028 7.33946667,17.1829028 L7.039,17.182 L7.03961905,18.0260228 Z M3.98174197,16.6487148 L3.98204762,18.0260228 C3.98204762,18.6740228 4.48557143,19.2004228 5.10566667,19.2004228 C5.7257619,19.2004228 6.23009524,18.6740228 6.23009524,18.0260228 L6.23,17.182 L5.10113333,17.1829028 C4.65214859,17.1829028 4.24963173,16.9750095 3.98174197,16.6487148 Z M6.77004762,0.970822752 L6.77004762,3.27482275 C6.77004762,3.37242275 6.73361905,3.46682275 6.66885714,3.53962275 L5.40438095,4.95562275 C5.32747619,5.04202275 5.21738095,5.09162275 5.10080952,5.09162275 C4.98504762,5.09162275 4.87414286,5.04202275 4.7972381,4.95562275 L3.53438095,3.53962275 C3.46880952,3.46682275 3.43319048,3.37242275 3.43319048,3.27482275 L3.43319048,0.970822752 C1.86433333,1.65642275 0.80952381,3.26362275 0.80952381,5.05482275 C0.80952381,6.95002275 1.97685714,8.63562275 3.71409524,9.25002275 C3.87438095,9.30682275 3.98204762,9.45722275 3.98204762,9.62682275 L3.98092065,14.746892 C4.24880863,14.4200214 4.65168951,14.2117028 5.10113333,14.2117028 L6.23,14.211 L6.23009524,9.62282275 C6.23009524,9.45402275 6.33695238,9.30362275 6.4972381,9.24682275 C8.228,8.63002275 9.39209524,6.94522275 9.39209524,5.05482275 C9.39209524,3.26362275 8.33728571,1.65642275 6.77004762,0.970822752 Z" id="Icon/Assistance" fill="#FBB800"></path>
                        </g>
                    </g>
                </g>
            </g>
        </g>
    </g>
</svg>