<svg xmlns="http://www.w3.org/2000/svg" width="24" height="24" viewBox="0 0 24 24">
    <g fill="none" fill-rule="evenodd">
        <g>
            <g>
                <g>
                    <g>
                        <g>
                            <path fill="#FFF3ED" d="M10.186.5l4.465 3.234v-2.04h2.437v3.805l2.436 1.765h-1.727v9.235H2.577V7.264H.849L10.186.5z" transform="translate(-102.000000, -414.000000) translate(60.000000, 385.000000) translate(10.000000, 29.000000) translate(32.000000, 0.000000) translate(2.000000, 4.000400)"/>
                            <path fill="#FF8B4F" d="M10.456.088l3.719 2.693V1.693c0-.276.214-.5.477-.5h2.436c.263 0 .476.224.476.5v3.543l2.23 1.615c.172.125.246.353.184.561-.062.208-.246.351-.454.351h-1.251v8.236h1.25c.264 0 .477.225.477.5 0 .277-.213.5-.476.5H.476C.213 17 0 16.777 0 16.5c0-.275.213-.5.476-.5H2.1V7.763H.85c-.209 0-.394-.143-.456-.35-.06-.21.014-.437.184-.562L9.915.088c.164-.117.378-.117.541 0zm6.864 7.676H3.052V16l1.768-.001.001-5.07c0-.275.213-.5.476-.5h3.055c.263 0 .477.225.477.5L8.828 16h8.492V7.765zM7.875 11.43H5.773V16h2.102v-4.57zm7.2-2.28c.263 0 .476.225.476.5v2.388c0 .276-.213.5-.476.5h-4.06c-.263 0-.476-.224-.476-.5V9.65c0-.276.213-.5.476-.5h4.06zm-.476 1h-3.108v1.388H14.6V10.15zm-4.413-9.043L2.378 6.763h15.616l-1.126-.813c-.036-.02-.07-.044-.099-.073l-2.322-1.68c-.046-.024-.089-.055-.125-.091l-4.136-2.998zm6.426 1.086h-1.484v1.279l1.483 1.074V2.193z" transform="translate(-102.000000, -414.000000) translate(60.000000, 385.000000) translate(10.000000, 29.000000) translate(32.000000, 0.000000) translate(2.000000, 4.000400)"/>
                        </g>
                    </g>
                </g>
            </g>
        </g>
    </g>
</svg>
