<?xml version="1.0" encoding="UTF-8"?>
<svg width="24px" height="24px" viewBox="0 0 24 24" version="1.1" xmlns="http://www.w3.org/2000/svg" xmlns:xlink="http://www.w3.org/1999/xlink">
    <title>C98B7059-8485-4C90-9D74-01D97279975C</title>
    <g id="e.-Icons" stroke="none" stroke-width="1" fill="none" fill-rule="evenodd">
        <g id="Primitives-Icons-Category" transform="translate(-210.000000, -414.000000)">
            <g id="Icon-container" transform="translate(168.000000, 385.000000)">
                <g id="Group-7" transform="translate(10.000000, 29.000000)">
                    <g id="a.-icons/c.-category/colored/income/a.Light" transform="translate(32.000000, -0.000000)">
                        <g id="Income" transform="translate(1.999905, 2.000400)">
                            <path d="M12.8981905,9.874 C12.8981905,9.93259707 12.8874068,9.99050391 12.8663544,10.0475793 L12.8981905,10.0479 L12.8981905,12.6039 C12.8981905,13.5077171 10.3381145,14.2467512 7.101411,14.3051781 L7.10104762,15.2389 L19.5239048,15.2389 L19.5239048,17.7959 C19.5239048,18.7369 16.7429524,19.4999 13.3134286,19.4999 C9.88295238,19.4999 7.10104762,18.7369 7.10104762,17.7959 L7.10114286,16.6915 C3.67161905,16.6915 0.476380952,15.9285 0.476380952,14.9865 L0.476285714,10.0479 L0.508122017,10.0475793 C0.487069372,9.99050391 0.476285714,9.93259707 0.476285714,9.874 L0.476285714,2.2042 L0.476285714,2.2042 C0.476285714,1.2632 3.2572381,0.4992 6.68771429,0.4992 C10.1172381,0.4992 12.8981905,1.2632 12.8981905,2.2042 L12.8981905,9.874 Z" id="Combined-Shape" fill="#E6F9F5"></path>
                            <path d="M0,2.201 C-5.15143483e-14,0.508615385 3.99099339,0.0246337936 6.49326414,0.000928876077 L6.68761905,7.10542736e-15 C9.17047619,7.10542736e-15 13.3742857,0.464 13.3742857,2.204 L13.373,2.213 L13.3739048,9.8732 L13.3682853,9.97054638 C13.3719855,9.99569584 13.3739048,10.021463 13.3739048,10.0477 L13.3739048,12.6037 C13.3739048,14.1499405 10.0580187,14.6889075 7.57679756,14.7901423 L7.57771429,17.7956 C7.66914286,18.1316 9.51390476,18.9996 13.3129524,18.9996 C17.112,18.9996 18.9558095,18.1316 19.0481905,17.7866 L19.0472381,15.2386 C19.0472381,14.9626 19.2605714,14.7386 19.5234286,14.7386 C19.7872381,14.7386 19.999619,14.9626 19.999619,15.2386 L19.999619,17.7956 C19.999619,19.5356 15.7958095,19.9996 13.3129524,19.9996 C10.8291429,19.9996 6.62533333,19.5356 6.62533333,17.7956 L6.62572187,17.1845898 C4.41060294,17.1264714 9.52380952e-05,16.6643253 9.52380952e-05,14.9872 L0.000571428571,10.0477 L0.0056487424,9.97694787 C0.00228004931,9.94287983 0.000571428571,9.90829943 0.000571428571,9.8732 L0,2.201 Z M0.951735112,13.8350582 L0.95247619,14.9872 C1.11247619,15.3592 3.24485714,16.1202 6.62485714,16.1862 L6.624,14.808 L6.49295458,14.8077711 C4.75139793,14.7912665 2.28776478,14.5516336 0.951735112,13.8350582 Z M6.6872381,12.0782 C4.93924595,12.0782 2.33826303,11.8482182 0.951735112,11.1045582 L0.952621896,12.2026081 C1.40230403,12.5636167 3.10476475,13.6677947 7.09533333,13.6342 C7.22771429,13.6482 7.34580952,13.6842 7.43628571,13.7792 L7.45162262,13.7965769 C10.7350621,13.6905152 12.336519,12.9167103 12.4224762,12.5957 L12.4227411,11.1045582 C11.0362132,11.8482182 8.43523024,12.0782 6.6872381,12.0782 Z M6.6872381,9.5216 C4.93924595,9.5216 2.33826303,9.2916182 0.951735112,8.54795823 L0.952952381,9.8732 C1.04438095,10.2102 2.88819048,11.0782 6.6872381,11.0782 C10.4862857,11.0782 12.3300952,10.2102 12.4224762,9.8652 L12.4227411,8.54795823 C11.0362132,9.2916182 8.43523024,9.5216 6.6872381,9.5216 Z M6.6872381,6.9649 C4.93924595,6.9649 2.33826303,6.7349182 0.951735112,5.99160718 L0.952952381,7.3166 C1.04438095,7.6536 2.88819048,8.5216 6.6872381,8.5216 C10.4862857,8.5216 12.3300952,7.6536 12.4224762,7.3086 L12.4227411,5.99160718 C11.0362132,6.7349182 8.43523024,6.9649 6.6872381,6.9649 Z M6.68761905,4.408 C4.93895641,4.408 2.33777503,4.1780182 0.951188377,3.43470718 L0.952952381,4.7609 C1.04438095,5.0969 2.88819048,5.9649 6.6872381,5.9649 C10.4862857,5.9649 12.3300952,5.0969 12.4224762,4.7519 L12.423122,3.43470718 C11.0365941,4.1780182 8.43561119,4.408 6.68761905,4.408 Z M6.68761905,1 C2.89808737,1 1.05493024,1.86222972 0.952239757,2.21012866 L0.952,2.215 L0.964822778,2.24426391 C1.15919892,2.59274931 3.00369408,3.408 6.68761905,3.408 C10.4542857,3.408 12.2980952,2.555 12.42,2.204 C12.2990476,1.853 10.4552381,1 6.68761905,1 Z" id="Combined-Shape" fill="#0BC9A2"></path>
                            <path d="M13.3134286,10.9777 C16.644966,10.9777 19.3644638,11.6986665 19.517144,12.60249 L19.5239048,12.6827 L19.5239048,15.2387 C19.5239048,16.1807 16.7429524,16.9437 13.3134286,16.9437 C9.88295238,16.9437 7.10104762,16.1807 7.10104762,15.2387 L7.10104762,12.6827 C7.10104762,11.7417 9.88295238,10.9777 13.3134286,10.9777 Z" id="Combined-Shape" fill="#E6F9F5"></path>
                            <path d="M19.9919036,12.5511569 L19.999619,12.6824 L19.999619,12.6824 L19.999619,15.2384 C19.999619,16.9794 15.7958095,17.4434 13.3129524,17.4434 C10.8291429,17.4434 6.62533333,16.9794 6.62533333,15.2384 L6.62533333,12.6824 C6.62485714,10.9871154 10.6158505,10.5031338 13.1190023,10.4794289 L13.3134286,10.4785 C15.7326227,10.4785 19.7856467,10.9190102 19.9919036,12.5511569 Z M13.5077121,14.8865692 L13.3134286,14.8875 C11.5645174,14.8875 8.96397044,14.6571337 7.57707379,13.9139561 L7.57771429,15.2384 C7.66914286,15.5754 9.51390476,16.4434 13.3129524,16.4434 C17.112,16.4434 18.9558095,15.5754 19.0481905,15.2304 L19.0479281,13.9139561 C17.7116686,14.6300602 15.2488328,14.8700352 13.5077121,14.8865692 Z M13.3134286,11.4785 C9.53236887,11.4785 7.68807558,12.3382998 7.57774269,12.6865644 L7.57733333,12.6955 L7.58968504,12.7227666 C7.78416887,13.071309 9.63042713,13.8875 13.3134286,13.8875 C17.0791429,13.8875 18.9239048,13.0335 19.0458095,12.6825 C18.9239048,12.3315 17.0800952,11.4785 13.3134286,11.4785 Z" id="Combined-Shape" fill="#0BC9A2"></path>
                        </g>
                    </g>
                </g>
            </g>
        </g>
    </g>
</svg>