<svg width="24" height="24" viewBox="0 0 24 24" xmlns="http://www.w3.org/2000/svg">
    <path d="M5.757 14.411a.469.469 0 0 1-.003.668l-2.193 2.154 17.963.001c.263 0 .476.212.476.472 0 .261-.213.473-.476.473H3.704l2.05 2.014a.473.473 0 0 1-.335.808.475.475 0 0 1-.335-.137L2.142 17.97a.467.467 0 0 1 0-.67l2.942-2.892a.48.48 0 0 1 .673.002zm13.16-10.274 2.941 2.892a.467.467 0 0 1 0 .67l-2.942 2.893a.475.475 0 0 1-.673-.003.469.469 0 0 1 .003-.668l2.04-2.007H2.477A.474.474 0 0 1 2 7.442c0-.26.213-.472.476-.472h17.97l-2.2-2.163a.469.469 0 0 1-.003-.668.48.48 0 0 1 .673-.002z" fill="#31C3DF" fill-rule="evenodd"/>
</svg>
