<svg width="120" height="72" viewBox="0 0 120 72" xmlns="http://www.w3.org/2000/svg">
    <g fill-rule="nonzero" fill="none">
        <path d="M44 3.892c3.891 0 7.55.77 10.975 2.312 3.425 1.54 6.414 3.767 8.967 6.678 2.553 2.911 4.569 6.46 6.048 10.648s2.218 8.928 2.218 14.221c0 5.293-.74 10.034-2.218 14.221-1.48 4.188-3.495 7.737-6.048 10.649-2.553 2.91-5.542 5.137-8.967 6.678C51.55 70.84 47.89 71.611 44 71.611c-3.923 0-7.59-.77-10.999-2.312-3.41-1.541-6.39-3.767-8.943-6.678-2.554-2.912-4.562-6.461-6.025-10.649-1.463-4.187-2.195-8.928-2.195-14.22 0-5.294.732-10.034 2.195-14.222 1.463-4.187 3.471-7.737 6.025-10.648C26.61 9.971 29.592 7.745 33 6.204 36.411 4.662 40.077 3.892 44 3.892zm0 12.096c-2.086 0-4.048.467-5.885 1.401-1.837.934-3.433 2.312-4.787 4.133-1.354 1.822-2.42 4.087-3.2 6.795-.778 2.71-1.167 5.854-1.167 9.434 0 3.58.39 6.726 1.168 9.434.778 2.71 1.845 4.974 3.199 6.796 1.354 1.821 2.95 3.199 4.787 4.133a12.803 12.803 0 0 0 5.885 1.4c2.086 0 4.047-.466 5.884-1.4 1.837-.934 3.433-2.312 4.787-4.133 1.355-1.822 2.42-4.087 3.2-6.796.778-2.708 1.167-5.853 1.167-9.434 0-3.58-.39-6.725-1.168-9.434-.778-2.708-1.844-4.973-3.199-6.795-1.354-1.821-2.95-3.199-4.787-4.133A12.803 12.803 0 0 0 44 15.988zm63.655 54.455h-12.61V21.78L79.4 28.131V15.427l28.255-11.395v66.411z" fill-opacity=".5" fill="#4A90E2"/>
        <path d="M40.108.486c4.096 0 7.959.814 11.574 2.44 3.617 1.628 6.775 3.98 9.465 7.048 2.68 3.056 4.788 6.767 6.327 11.124 1.537 4.352 2.302 9.256 2.302 14.707 0 5.452-.765 10.356-2.302 14.707-1.539 4.357-3.647 8.069-6.327 11.125-2.69 3.067-5.848 5.42-9.465 7.047-3.615 1.627-7.478 2.44-11.574 2.44-4.128 0-8-.813-11.6-2.441-3.6-1.628-6.75-3.98-9.44-7.046-2.68-3.057-4.782-6.77-6.305-11.13-1.52-4.35-2.277-9.251-2.277-14.702 0-5.45.757-10.352 2.277-14.702 1.523-4.359 3.624-8.072 6.305-11.13 2.69-3.065 5.84-5.417 9.44-7.045C32.108 1.3 35.98.486 40.108.486zm63.11.247a1.46 1.46 0 0 1 1.991 1.15l.014.203v66.411c0 .74-.55 1.35-1.262 1.446l-.198.014h-12.61a1.46 1.46 0 0 1-1.445-1.262l-.014-.198V22l-13.637 5.538a1.46 1.46 0 0 1-1.955-.957l-.04-.193-.013-.202V13.482c0-.521.277-.997.716-1.256l.197-.098L103.218.733zm-63.11 2.672c-3.719 0-7.18.728-10.398 2.183-3.218 1.454-6.03 3.555-8.447 6.31-2.425 2.766-4.34 6.151-5.744 10.168-1.407 4.025-2.114 8.604-2.114 13.74 0 5.135.707 9.714 2.114 13.739 1.403 4.017 3.319 7.402 5.744 10.167 2.417 2.756 5.23 4.857 8.447 6.311 3.218 1.455 6.68 2.182 10.398 2.182 3.687 0 7.141-.727 10.376-2.183 3.233-1.455 6.052-3.554 8.468-6.31 2.427-2.766 4.35-6.153 5.77-10.172 1.42-4.024 2.135-8.6 2.135-13.735 0-5.134-.714-9.71-2.135-13.735-1.42-4.018-3.343-7.405-5.77-10.171-2.416-2.756-5.235-4.856-8.468-6.31-3.235-1.456-6.689-2.184-10.376-2.184zm62.196.841L76.968 14.464v9.553l13.637-5.536a1.46 1.46 0 0 1 1.955.957l.04.193.013.202v47.205h9.691V4.246zm-62.196 8.336c2.315 0 4.503.521 6.546 1.56 2.043 1.039 3.81 2.565 5.296 4.563 1.466 1.971 2.607 4.394 3.431 7.263.819 2.849 1.224 6.128 1.224 9.837 0 3.71-.405 6.989-1.224 9.837-.824 2.87-1.965 5.293-3.43 7.263-1.486 1.998-3.254 3.525-5.297 4.564a14.262 14.262 0 0 1-6.546 1.56c-2.316 0-4.504-.522-6.546-1.56-2.043-1.04-3.811-2.566-5.297-4.564-1.465-1.97-2.606-4.393-3.43-7.263-.82-2.848-1.225-6.127-1.225-9.837s.406-6.988 1.224-9.837c.825-2.869 1.966-5.292 3.43-7.263 1.487-1.998 3.255-3.524 5.298-4.563a14.262 14.262 0 0 1 6.546-1.56zm0 2.92c-1.857 0-3.592.412-5.223 1.242-1.631.83-3.055 2.058-4.278 3.703-1.243 1.672-2.235 3.78-2.967 6.328-.739 2.568-1.111 5.58-1.111 9.03 0 3.452.372 6.462 1.11 9.031.733 2.549 1.725 4.656 2.968 6.328 1.223 1.645 2.647 2.874 4.278 3.703a11.344 11.344 0 0 0 5.223 1.242c1.857 0 3.591-.413 5.223-1.242 1.63-.83 3.054-2.058 4.277-3.703 1.243-1.672 2.235-3.78 2.968-6.328.738-2.569 1.11-5.58 1.11-9.03 0-3.452-.372-6.463-1.11-9.031-.733-2.549-1.725-4.656-2.968-6.328-1.223-1.645-2.646-2.874-4.277-3.703a11.344 11.344 0 0 0-5.223-1.243z" fill="#2C4054"/>
    </g>
</svg>
