<svg width="120" height="72" viewBox="0 0 120 72" xmlns="http://www.w3.org/2000/svg">
    <g fill-rule="nonzero" fill="none">
        <path d="M36 3.892c3.891 0 7.55.77 10.975 2.312 3.425 1.54 6.414 3.767 8.967 6.678 2.553 2.911 4.569 6.46 6.048 10.648s2.218 8.928 2.218 14.221c0 5.293-.74 10.034-2.218 14.221-1.48 4.188-3.495 7.737-6.048 10.649-2.553 2.91-5.542 5.137-8.967 6.678C43.55 70.84 39.89 71.611 36 71.611c-3.923 0-7.59-.77-10.999-2.312-3.41-1.541-6.39-3.767-8.943-6.678-2.554-2.912-4.562-6.461-6.025-10.649-1.463-4.187-2.195-8.928-2.195-14.22 0-5.294.732-10.034 2.195-14.222 1.463-4.187 3.471-7.737 6.025-10.648C18.61 9.971 21.592 7.745 25 6.204 28.411 4.662 32.077 3.892 36 3.892zm0 12.096c-2.086 0-4.048.467-5.885 1.401-1.837.934-3.433 2.312-4.787 4.133-1.354 1.822-2.42 4.087-3.2 6.795-.778 2.71-1.167 5.854-1.167 9.434 0 3.58.39 6.726 1.168 9.434.778 2.71 1.845 4.974 3.199 6.796 1.354 1.821 2.95 3.199 4.787 4.133a12.803 12.803 0 0 0 5.885 1.4c2.086 0 4.047-.466 5.884-1.4 1.837-.934 3.433-2.312 4.787-4.133 1.355-1.822 2.42-4.087 3.2-6.796.778-2.708 1.167-5.853 1.167-9.434 0-3.58-.39-6.725-1.168-9.434-.778-2.708-1.844-4.973-3.199-6.795-1.354-1.821-2.95-3.199-4.787-4.133A12.803 12.803 0 0 0 36 15.988zm36.1-.84c.873-1.153 1.962-2.39 3.27-3.714 1.308-1.323 2.864-2.545 4.67-3.666 1.806-1.12 3.892-2.047 6.258-2.779 2.367-.731 5.075-1.097 8.127-1.097 3.425 0 6.507.514 9.247 1.541 2.74 1.028 5.067 2.468 6.982 4.32 1.915 1.853 3.386 4.079 4.413 6.679 1.028 2.6 1.541 5.456 1.541 8.57 0 1.992-.24 3.852-.723 5.58a23.282 23.282 0 0 1-1.985 4.904 28.217 28.217 0 0 1-2.99 4.414 75.51 75.51 0 0 1-3.736 4.203L93.21 58.627h24.986v11.816h-43.2V60.59l23.118-23.678c1.744-1.775 3.075-3.573 3.993-5.394a12.738 12.738 0 0 0 1.378-5.815c0-1.432-.241-2.74-.724-3.923a9.246 9.246 0 0 0-2.031-3.082c-.872-.872-1.923-1.55-3.153-2.032-1.23-.483-2.592-.724-4.086-.724-1.557 0-2.966.195-4.227.584-1.261.39-2.42.91-3.48 1.565a17.356 17.356 0 0 0-2.942 2.288 43.967 43.967 0 0 0-2.615 2.755l-8.126-7.986z" fill-opacity=".5" fill="#4A90E2"/>
        <path d="M32.108.486c4.096 0 7.959.814 11.574 2.44 3.617 1.628 6.775 3.98 9.465 7.048 2.68 3.056 4.788 6.767 6.327 11.124 1.537 4.352 2.302 9.256 2.302 14.707 0 5.452-.765 10.356-2.302 14.707-1.539 4.357-3.647 8.069-6.327 11.125-2.69 3.067-5.848 5.42-9.465 7.047-3.615 1.627-7.478 2.44-11.574 2.44-4.128 0-8-.813-11.6-2.441-3.6-1.628-6.75-3.98-9.44-7.046-2.68-3.057-4.782-6.77-6.305-11.13-1.52-4.35-2.277-9.251-2.277-14.702 0-5.45.757-10.352 2.277-14.702 1.523-4.359 3.624-8.072 6.305-11.13 2.69-3.065 5.84-5.417 9.44-7.045C24.108 1.3 27.98.486 32.108.486zm58.425 0c3.593 0 6.849.543 9.76 1.635 2.922 1.096 5.421 2.642 7.484 4.637 2.066 2 3.653 4.4 4.756 7.191 1.097 2.776 1.643 5.814 1.643 9.107 0 2.122-.258 4.114-.778 5.973a24.74 24.74 0 0 1-2.109 5.21 29.676 29.676 0 0 1-3.143 4.642 75.1 75.1 0 0 1-2.805 3.215l-1.006 1.072-11.592 12.054h21.561a1.46 1.46 0 0 1 1.408 1.072l.039.19.013.198v11.815c0 .74-.55 1.35-1.262 1.446l-.198.014h-43.2a1.46 1.46 0 0 1-1.446-1.262l-.013-.198v-9.854c0-.305.095-.6.27-.845l.145-.175 23.121-23.681c1.643-1.672 2.884-3.35 3.731-5.029a11.279 11.279 0 0 0 1.222-5.157c0-1.248-.207-2.369-.616-3.372a7.787 7.787 0 0 0-1.712-2.601c-.728-.727-1.608-1.295-2.654-1.705-1.054-.414-2.236-.623-3.553-.623-1.417 0-2.681.174-3.796.519a13.556 13.556 0 0 0-3.143 1.411 15.897 15.897 0 0 0-2.696 2.097 42.508 42.508 0 0 0-2.528 2.664 1.46 1.46 0 0 1-1.967.217l-.157-.135-8.126-7.986a1.46 1.46 0 0 1-.14-1.921c.912-1.207 2.044-2.492 3.394-3.858 1.391-1.408 3.038-2.701 4.939-3.88 1.916-1.19 4.115-2.167 6.596-2.934C84.49.872 87.342.486 90.533.486zm-58.425 2.92c-3.719 0-7.18.727-10.398 2.182-3.218 1.454-6.03 3.555-8.447 6.31-2.425 2.766-4.34 6.151-5.744 10.168-1.407 4.025-2.114 8.604-2.114 13.74 0 5.135.707 9.714 2.114 13.739 1.403 4.017 3.319 7.402 5.744 10.167 2.417 2.756 5.23 4.857 8.447 6.311 3.218 1.455 6.68 2.182 10.398 2.182 3.687 0 7.141-.727 10.376-2.183 3.233-1.455 6.052-3.554 8.468-6.31 2.427-2.766 4.35-6.153 5.77-10.172 1.42-4.024 2.135-8.6 2.135-13.735 0-5.134-.714-9.71-2.135-13.735-1.42-4.018-3.343-7.405-5.77-10.171-2.416-2.756-5.235-4.856-8.468-6.31-3.235-1.456-6.689-2.184-10.376-2.184zm58.425 0c-2.912 0-5.477.346-7.695 1.032-2.252.696-4.224 1.572-5.92 2.624-1.711 1.062-3.178 2.214-4.402 3.452a45.628 45.628 0 0 0-1.507 1.596l-.449.51-.392.46 6.103 6 .743-.78.923-.918a18.815 18.815 0 0 1 3.189-2.48 16.471 16.471 0 0 1 3.816-1.718c1.406-.434 2.96-.648 4.657-.648 1.671 0 3.214.273 4.62.825 1.413.554 2.634 1.341 3.65 2.358a10.704 10.704 0 0 1 2.352 3.563c.556 1.363.832 2.858.832 4.474 0 2.283-.513 4.446-1.535 6.472-.88 1.745-2.1 3.455-3.653 5.13l-.598.626-22.705 23.253v7.8h40.281v-8.896H89.318c-1.147 0-1.793-1.227-1.288-2.15l.108-.17.128-.151 13.961-14.521a74.053 74.053 0 0 0 3.664-4.122 26.759 26.759 0 0 0 2.836-4.186 21.822 21.822 0 0 0 1.86-4.597c.446-1.597.67-3.325.67-5.188 0-2.935-.48-5.61-1.439-8.034-.952-2.409-2.307-4.46-4.07-6.166-1.768-1.71-3.924-3.044-6.48-4.002-2.57-.964-5.479-1.449-8.735-1.449zm-58.425 9.176c2.315 0 4.503.521 6.546 1.56 2.043 1.039 3.81 2.565 5.296 4.563 1.466 1.971 2.607 4.394 3.431 7.263.819 2.849 1.224 6.128 1.224 9.837 0 3.71-.405 6.989-1.224 9.837-.824 2.87-1.965 5.293-3.43 7.263-1.486 1.998-3.254 3.525-5.297 4.564a14.262 14.262 0 0 1-6.546 1.56c-2.316 0-4.504-.522-6.546-1.56-2.043-1.04-3.811-2.566-5.297-4.564-1.465-1.97-2.606-4.393-3.43-7.263-.82-2.848-1.225-6.127-1.225-9.837s.406-6.988 1.224-9.837c.825-2.869 1.966-5.292 3.43-7.263 1.487-1.998 3.255-3.524 5.298-4.563a14.262 14.262 0 0 1 6.546-1.56zm0 2.92c-1.857 0-3.592.412-5.223 1.242-1.631.83-3.055 2.058-4.278 3.703-1.243 1.672-2.235 3.78-2.967 6.328-.739 2.568-1.111 5.58-1.111 9.03 0 3.452.372 6.462 1.11 9.031.733 2.549 1.725 4.656 2.968 6.328 1.223 1.645 2.647 2.874 4.278 3.703a11.344 11.344 0 0 0 5.223 1.242c1.857 0 3.591-.413 5.223-1.242 1.63-.83 3.054-2.058 4.277-3.703 1.243-1.672 2.235-3.78 2.968-6.328.738-2.569 1.11-5.58 1.11-9.03 0-3.452-.372-6.463-1.11-9.031-.733-2.549-1.725-4.656-2.968-6.328-1.223-1.645-2.646-2.874-4.277-3.703a11.344 11.344 0 0 0-5.223-1.243z" fill="#2C4054"/>
    </g>
</svg>
