<svg width="120" height="72" viewBox="0 0 120 72" xmlns="http://www.w3.org/2000/svg">
    <g fill-rule="nonzero" fill="none">
        <path d="M36 3.892c3.891 0 7.55.77 10.975 2.312 3.425 1.54 6.414 3.767 8.967 6.678 2.553 2.911 4.569 6.46 6.048 10.648s2.218 8.928 2.218 14.221c0 5.293-.74 10.034-2.218 14.221-1.48 4.188-3.495 7.737-6.048 10.649-2.553 2.91-5.542 5.137-8.967 6.678C43.55 70.84 39.89 71.611 36 71.611c-3.923 0-7.59-.77-10.999-2.312-3.41-1.541-6.39-3.767-8.943-6.678-2.554-2.912-4.562-6.461-6.025-10.649-1.463-4.187-2.195-8.928-2.195-14.22 0-5.294.732-10.034 2.195-14.222 1.463-4.187 3.471-7.737 6.025-10.648C18.61 9.971 21.592 7.745 25 6.204 28.411 4.662 32.077 3.892 36 3.892zm0 12.096c-2.086 0-4.048.467-5.885 1.401-1.837.934-3.433 2.312-4.787 4.133-1.354 1.822-2.42 4.087-3.2 6.795-.778 2.71-1.167 5.854-1.167 9.434 0 3.58.39 6.726 1.168 9.434.778 2.71 1.845 4.974 3.199 6.796 1.354 1.821 2.95 3.199 4.787 4.133a12.803 12.803 0 0 0 5.885 1.4c2.086 0 4.047-.466 5.884-1.4 1.837-.934 3.433-2.312 4.787-4.133 1.355-1.822 2.42-4.087 3.2-6.796.778-2.708 1.167-5.853 1.167-9.434 0-3.58-.39-6.725-1.168-9.434-.778-2.708-1.844-4.973-3.199-6.795-1.354-1.821-2.95-3.199-4.787-4.133A12.803 12.803 0 0 0 36 15.988zM93.724 3.892c3.456 0 6.6.451 9.434 1.354 2.833.903 5.27 2.172 7.309 3.807 2.04 1.634 3.62 3.603 4.74 5.907 1.121 2.304 1.682 4.873 1.682 7.706 0 3.488-.864 6.476-2.592 8.967-1.728 2.491-4.118 4.453-7.17 5.885 3.457 1.37 6.189 3.324 8.197 5.861 2.008 2.538 3.012 5.581 3.012 9.13 0 3.238-.677 6.048-2.031 8.43a18.295 18.295 0 0 1-5.394 5.955c-2.242 1.588-4.81 2.77-7.706 3.55a34.39 34.39 0 0 1-8.967 1.167c-4.92 0-9.333-.825-13.24-2.475-3.908-1.65-7.107-3.986-9.598-7.006l7.52-8.266a19.823 19.823 0 0 0 6.725 4.623 20.705 20.705 0 0 0 8.126 1.635c1.588 0 3.074-.171 4.46-.514 1.385-.342 2.6-.864 3.643-1.564a7.57 7.57 0 0 0 2.452-2.662c.591-1.075.887-2.328.887-3.76 0-1.401-.335-2.63-1.004-3.69-.67-1.058-1.588-1.953-2.756-2.685-1.167-.732-2.522-1.276-4.063-1.634-1.54-.359-3.199-.538-4.974-.538h-7.612V31.867h7.66c1.587 0 3.074-.171 4.46-.514 1.385-.342 2.599-.864 3.642-1.564a7.706 7.706 0 0 0 2.452-2.616c.592-1.043.887-2.25.887-3.62 0-1.307-.28-2.475-.84-3.502a7.452 7.452 0 0 0-2.312-2.569c-.98-.685-2.125-1.206-3.433-1.564-1.307-.358-2.724-.537-4.25-.537-1.525 0-2.942.179-4.25.537-1.307.358-2.514.84-3.62 1.448a16.113 16.113 0 0 0-3.011 2.125c-.903.81-1.682 1.65-2.336 2.522l-7.94-7.987a25.094 25.094 0 0 1 3.737-4.016 23.108 23.108 0 0 1 4.857-3.223c1.806-.902 3.807-1.61 6.002-2.125 2.195-.513 4.6-.77 7.215-.77z" fill-opacity=".5" fill="#4A90E2"/>
        <path d="M32.108.486c4.096 0 7.959.814 11.574 2.44 3.617 1.628 6.775 3.98 9.465 7.048 2.68 3.056 4.788 6.767 6.327 11.124 1.537 4.352 2.302 9.256 2.302 14.707 0 5.452-.765 10.356-2.302 14.707-1.539 4.357-3.647 8.069-6.327 11.125-2.69 3.067-5.848 5.42-9.465 7.047-3.615 1.627-7.478 2.44-11.574 2.44-4.128 0-8-.813-11.6-2.441-3.6-1.628-6.75-3.98-9.44-7.046-2.68-3.057-4.782-6.77-6.305-11.13-1.52-4.35-2.277-9.251-2.277-14.702 0-5.45.757-10.352 2.277-14.702 1.523-4.359 3.624-8.072 6.305-11.13 2.69-3.065 5.84-5.417 9.44-7.045C24.108 1.3 27.98.486 32.108.486zm57.724 0c3.601 0 6.895.473 9.877 1.424 2.999.955 5.595 2.307 7.779 4.058 2.207 1.769 3.924 3.909 5.14 6.408 1.22 2.508 1.828 5.295 1.828 8.344 0 3.775-.948 7.054-2.852 9.8a18.065 18.065 0 0 1-4.434 4.453l-.673.457-.05.029.117.062c1.948 1.07 3.633 2.365 5.05 3.885l.518.58.445.541c2.217 2.802 3.327 6.166 3.327 10.036 0 3.481-.737 6.54-2.222 9.152a19.755 19.755 0 0 1-5.82 6.424c-2.385 1.69-5.112 2.946-8.17 3.768a35.849 35.849 0 0 1-9.346 1.217c-5.108 0-9.714-.86-13.808-2.59-4.12-1.74-7.512-4.215-10.156-7.421a1.46 1.46 0 0 1-.086-1.742l.133-.169 7.519-8.266a1.46 1.46 0 0 1 2.136-.025 18.364 18.364 0 0 0 6.236 4.286 19.246 19.246 0 0 0 7.559 1.52c1.473 0 2.842-.158 4.11-.472 1.225-.302 2.282-.756 3.18-1.359a6.112 6.112 0 0 0 1.986-2.154c.468-.85.707-1.86.707-3.056 0-1.133-.261-2.091-.779-2.91-.55-.869-1.31-1.61-2.296-2.228-1.026-.643-2.23-1.127-3.619-1.45a19.862 19.862 0 0 0-3.82-.485l-.823-.014h-7.613a1.46 1.46 0 0 1-1.446-1.261l-.013-.198V29.92c0-.738.549-1.349 1.261-1.445l.198-.014h7.66c1.472 0 2.841-.157 4.11-.47 1.224-.304 2.282-.758 3.178-1.36a6.248 6.248 0 0 0 1.997-2.124c.462-.815.697-1.773.697-2.9 0-1.07-.223-1.997-.662-2.803a5.993 5.993 0 0 0-1.867-2.071c-.839-.586-1.83-1.038-2.982-1.353-1.178-.323-2.466-.486-3.865-.486s-2.686.163-3.864.486c-1.2.328-2.3.768-3.302 1.319a14.654 14.654 0 0 0-2.741 1.932 16.072 16.072 0 0 0-2.142 2.311 1.46 1.46 0 0 1-2.038.297l-.165-.143-7.939-7.987a1.46 1.46 0 0 1-.139-1.896 26.552 26.552 0 0 1 3.953-4.25 24.565 24.565 0 0 1 5.162-3.427c1.91-.955 4.018-1.702 6.321-2.24 2.308-.54 4.825-.81 7.548-.81zm-57.724 2.92c-3.719 0-7.18.727-10.398 2.182-3.218 1.454-6.03 3.555-8.447 6.31-2.425 2.766-4.34 6.151-5.744 10.168-1.407 4.025-2.114 8.604-2.114 13.74 0 5.135.707 9.714 2.114 13.739 1.403 4.017 3.319 7.402 5.744 10.167 2.417 2.756 5.23 4.857 8.447 6.311 3.218 1.455 6.68 2.182 10.398 2.182 3.687 0 7.141-.727 10.376-2.183 3.233-1.455 6.052-3.554 8.468-6.31 2.427-2.766 4.35-6.153 5.77-10.172 1.42-4.024 2.135-8.6 2.135-13.735 0-5.134-.714-9.71-2.135-13.735-1.42-4.018-3.343-7.405-5.77-10.171-2.416-2.756-5.235-4.856-8.468-6.31-3.235-1.456-6.689-2.184-10.376-2.184zm57.724 0c-2.507 0-4.801.244-6.883.732-2.087.488-3.98 1.158-5.681 2.009a21.65 21.65 0 0 0-4.552 3.018 24.927 24.927 0 0 0-1.895 1.828l-.571.638-.284.337 5.898 5.933.354-.378.536-.537.568-.528a17.572 17.572 0 0 1 3.284-2.318 18.04 18.04 0 0 1 3.937-1.576c1.437-.393 2.983-.589 4.635-.589 1.653 0 3.199.196 4.636.59 1.464.4 2.76.991 3.883 1.775a8.911 8.911 0 0 1 2.757 3.066c.681 1.249 1.019 2.657 1.019 4.202 0 1.614-.357 3.069-1.077 4.34a9.164 9.164 0 0 1-2.908 3.106c-1.19.799-2.56 1.388-4.106 1.77-1.253.31-2.576.49-3.968.54l-.843.016H82.37v8.29h6.155c1.29 0 2.528.09 3.711.27l.877.152.716.153c1.693.393 3.198.999 4.508 1.82 1.348.844 2.424 1.894 3.213 3.142.822 1.299 1.23 2.8 1.23 4.47 0 1.668-.352 3.164-1.068 4.463a9.03 9.03 0 0 1-2.916 3.17c-1.19.798-2.561 1.387-4.107 1.77-1.503.37-3.107.555-4.81.555-3.028 0-5.93-.583-8.693-1.749a21.432 21.432 0 0 1-5.465-3.32l-.631-.55-5.626 6.184.141.155c1.83 1.938 4.015 3.537 6.563 4.8l.776.37.73.32c3.72 1.571 7.94 2.36 12.672 2.36a32.93 32.93 0 0 0 8.588-1.117c2.733-.735 5.144-1.845 7.241-3.331a16.836 16.836 0 0 0 4.97-5.485c1.223-2.152 1.84-4.713 1.84-7.709 0-3.228-.898-5.951-2.697-8.224-1.843-2.329-4.364-4.132-7.59-5.41-1.189-.472-1.24-2.135-.082-2.678 2.824-1.326 5.012-3.122 6.59-5.396 1.551-2.236 2.331-4.934 2.331-8.135 0-2.617-.512-4.967-1.534-7.067-1.026-2.109-2.469-3.907-4.34-5.408-1.895-1.518-4.172-2.704-6.84-3.554-2.684-.856-5.68-1.286-8.99-1.286zm-57.724 9.176c2.315 0 4.503.521 6.546 1.56 2.043 1.039 3.81 2.565 5.296 4.563 1.466 1.971 2.607 4.394 3.431 7.263.819 2.849 1.224 6.128 1.224 9.837 0 3.71-.405 6.989-1.224 9.837-.824 2.87-1.965 5.293-3.43 7.263-1.486 1.998-3.254 3.525-5.297 4.564a14.262 14.262 0 0 1-6.546 1.56c-2.316 0-4.504-.522-6.546-1.56-2.043-1.04-3.811-2.566-5.297-4.564-1.465-1.97-2.606-4.393-3.43-7.263-.82-2.848-1.225-6.127-1.225-9.837s.406-6.988 1.224-9.837c.825-2.869 1.966-5.292 3.43-7.263 1.487-1.998 3.255-3.524 5.298-4.563a14.262 14.262 0 0 1 6.546-1.56zm0 2.92c-1.857 0-3.592.412-5.223 1.242-1.631.83-3.055 2.058-4.278 3.703-1.243 1.672-2.235 3.78-2.967 6.328-.739 2.568-1.111 5.58-1.111 9.03 0 3.452.372 6.462 1.11 9.031.733 2.549 1.725 4.656 2.968 6.328 1.223 1.645 2.647 2.874 4.278 3.703a11.344 11.344 0 0 0 5.223 1.242c1.857 0 3.591-.413 5.223-1.242 1.63-.83 3.054-2.058 4.277-3.703 1.243-1.672 2.235-3.78 2.968-6.328.738-2.569 1.11-5.58 1.11-9.03 0-3.452-.372-6.463-1.11-9.031-.733-2.549-1.725-4.656-2.968-6.328-1.223-1.645-2.646-2.874-4.277-3.703a11.344 11.344 0 0 0-5.223-1.243z" fill="#2C4054"/>
    </g>
</svg>
