<?xml version="1.0" encoding="utf-8"?>
<!-- Generator: Adobe Illustrator 27.2.0, SVG Export Plug-In . SVG Version: 6.00 Build 0)  -->
<svg version="1.1" id="Capa_1" xmlns="http://www.w3.org/2000/svg" xmlns:xlink="http://www.w3.org/1999/xlink" x="0px" y="0px"
	 viewBox="0 0 19.38 19.48" style="enable-background:new 0 0 19.38 19.48;" xml:space="preserve">
<style type="text/css">
	.st0{fill-rule:evenodd;clip-rule:evenodd;fill:#FCF6E3;}
	.st1{fill-rule:evenodd;clip-rule:evenodd;fill:#F8B600;}
</style>
<polygon class="st0" points="17.91,1.48 16.9,4.54 18.92,6.58 15.89,6.25 14.2,9.31 13.44,5.99 10.16,5.22 13.19,3.52 12.85,0.46 
	14.88,2.5 17.91,1.48 "/>
<path class="st1" d="M13.18,0.14L15,1.97l2.76-0.93c0.16-0.06,0.35-0.01,0.47,0.11c0.12,0.12,0.17,0.31,0.11,0.47l-0.92,2.79
	l1.82,1.84c0.14,0.14,0.17,0.35,0.09,0.53c-0.08,0.18-0.26,0.28-0.47,0.26l-2.73-0.31l-1.54,2.79c-0.08,0.15-0.24,0.24-0.4,0.24
	c-0.02,0-0.04,0-0.06,0c-0.19-0.03-0.34-0.17-0.39-0.36l-0.57-2.49L0.79,19.34c-0.09,0.09-0.21,0.14-0.33,0.14
	c-0.12,0-0.24-0.05-0.33-0.14c-0.18-0.18-0.18-0.48,0-0.66l12.4-12.43l-2.49-0.58C9.87,5.63,9.73,5.48,9.7,5.29
	C9.67,5.1,9.77,4.91,9.93,4.82l2.77-1.55l-0.3-2.75c-0.02-0.2,0.08-0.38,0.26-0.47C12.83-0.04,13.04,0,13.18,0.14L13.18,0.14z
	 M13.46,1.73l0.19,1.74c0.02,0.19-0.07,0.36-0.23,0.46l-1.99,1.11l2.12,0.49c0.17,0.04,0.31,0.17,0.35,0.35l0.49,2.14l1.1-2
	c0.09-0.16,0.26-0.26,0.46-0.24l1.73,0.19l-1.1-1.11c-0.12-0.12-0.17-0.31-0.11-0.47l0.72-2.18l-2.16,0.73
	C14.86,3,14.67,2.96,14.55,2.83L13.46,1.73L13.46,1.73z"/>
</svg>
