<?xml version="1.0" encoding="utf-8"?>
<!-- Generator: Adobe Illustrator 27.2.0, SVG Export Plug-In . SVG Version: 6.00 Build 0)  -->
<svg version="1.1" id="Capa_1" xmlns="http://www.w3.org/2000/svg" xmlns:xlink="http://www.w3.org/1999/xlink" x="0px" y="0px"
	 viewBox="0 0 19.07 21" style="enable-background:new 0 0 19.07 21;" xml:space="preserve">
<style type="text/css">
	.st0{fill-rule:evenodd;clip-rule:evenodd;fill:#00C7A0;}
	.st1{fill-rule:evenodd;clip-rule:evenodd;fill:#E5F8F3;}
</style>
<path class="st0" d="M14.7,2.24c1.76,1.86,2.55,4.67,2.34,8.34l0,0.07c0,0.46,0.09,2.91,1.48,4.35c0.06,0.05,0.68,0.67,0.52,1.46
	c-0.11,0.57-0.57,1.02-1.38,1.34l-0.84,0.31c-1.83,0.65-3.66,0.99-5.37,1.11c-0.12,1-0.97,1.77-2,1.77c-1.05,0-1.92-0.81-2.01-1.83
	C4,18.83,1.58,17.89,1.4,17.82c-0.8-0.32-1.27-0.77-1.37-1.34c-0.13-0.69,0.31-1.24,0.48-1.42L0.56,15
	c1.38-1.42,1.46-3.88,1.47-4.35l0-0.08C1.82,6.92,2.6,4.11,4.37,2.24C6.34,0.15,8.85,0.01,9.22,0h0.62
	C10.22,0.01,12.72,0.15,14.7,2.24L14.7,2.24z M8.47,19.25l0.02,0.05C8.62,19.71,9,20,9.45,20c0.46,0,0.85-0.3,0.98-0.72
	c-0.2,0.01-0.41,0.01-0.6,0.01C9.36,19.29,8.91,19.27,8.47,19.25L8.47,19.25z M9.81,1L9.27,1c0,0-0.06,0-0.17,0.01L8.95,1.02
	C8.23,1.1,6.48,1.45,5.08,2.94C3.52,4.6,2.83,7.15,3.03,10.53c0,0.01,0,0.03,0,0.06l0,0.11c-0.01,0.7-0.15,3.34-1.76,5.01
	c-0.09,0.09-0.3,0.36-0.26,0.58c0.04,0.2,0.32,0.42,0.76,0.6c0.07,0.03,7.43,2.89,14.72,0.29l0.82-0.3c0.43-0.17,0.71-0.39,0.75-0.6
	c0.04-0.22-0.17-0.49-0.25-0.57c-1.62-1.68-1.76-4.32-1.77-5.01l0-0.15c0-0.01,0-0.02,0-0.02c0.2-3.4-0.5-5.96-2.07-7.61
	C12.23,1.08,9.97,1,9.81,1L9.81,1z"/>
<path class="st1" d="M9.81,1L9.27,1c0,0-0.06,0-0.17,0.01L8.95,1.02C8.23,1.1,6.48,1.45,5.08,2.94C3.52,4.6,2.83,7.15,3.03,10.53
	c0,0.01,0,0.03,0,0.06l0,0.11c-0.01,0.7-0.15,3.34-1.76,5.01c-0.09,0.09-0.3,0.36-0.26,0.58c0.04,0.2,0.32,0.42,0.76,0.6
	c0.07,0.03,7.43,2.89,14.72,0.29l0.82-0.3c0.43-0.17,0.71-0.39,0.75-0.6c0.04-0.22-0.17-0.49-0.25-0.57
	c-1.62-1.68-1.76-4.32-1.77-5.01l0-0.15c0-0.01,0-0.02,0-0.02c0.2-3.4-0.5-5.96-2.07-7.61C12.23,1.08,9.97,1,9.81,1L9.81,1z"/>
</svg>
