<?xml version="1.0" encoding="utf-8"?>
<!-- Generator: Adobe Illustrator 27.2.0, SVG Export Plug-In . SVG Version: 6.00 Build 0)  -->
<svg version="1.1" id="Capa_1" xmlns="http://www.w3.org/2000/svg" xmlns:xlink="http://www.w3.org/1999/xlink" x="0px" y="0px"
	 viewBox="0 0 20 20" style="enable-background:new 0 0 20 20;" xml:space="preserve">
<style type="text/css">
	.st0{fill-rule:evenodd;clip-rule:evenodd;fill:#FFECED;}
	.st1{fill-rule:evenodd;clip-rule:evenodd;fill:#FF4D51;}
	.st2{fill-rule:evenodd;clip-rule:evenodd;fill:#FFFFFF;}
</style>
<path class="st0" d="M1,5.73c-0.15,0.12-0.21,0.34-0.23,0.5C0.77,6.29,0.76,6.36,0.76,6.42v8.85c0,0.94,0.75,1.92,1.64,2.14
	L9.8,19.2c0.39,0.09,0.75,0.03,1.02-0.18c0.28-0.22,0.44-0.59,0.44-1.02V9.83c0-0.95-0.75-1.94-1.64-2.17c0,0-1.97-0.48-3.98-0.98
	l-0.5-0.12C3.62,6.19,2.18,5.83,1.61,5.68C1.33,5.61,1.13,5.63,1,5.73L1,5.73z"/>
<path class="st0" d="M13.63,4.76H2.37c-0.24,0-0.48,0.06-0.68,0.16C1.72,4.93,1.76,4.94,1.8,4.95C2.41,5.1,4.05,5.51,5.68,5.91
	L6.2,6.03C8.07,6.5,9.81,6.92,9.81,6.92c1.23,0.32,2.22,1.62,2.22,2.91v5.74h1.61c0.89,0,1.61-0.75,1.61-1.66V6.42
	C15.24,5.51,14.52,4.76,13.63,4.76L13.63,4.76z"/>
<path class="st1" d="M13.63,4C14.94,4,16,5.09,16,6.42v7.49c0,1.34-1.06,2.42-2.37,2.42h-1.61v1.66c0,0.66-0.27,1.25-0.73,1.62
	C10.97,19.87,10.57,20,10.14,20c-0.17,0-0.35-0.02-0.52-0.06l-7.39-1.79C1,17.85,0,16.56,0,15.27l0-8.94c0-0.05,0.01-0.12,0.02-0.2
	C0.16,4.93,1.16,4,2.37,4H13.63L13.63,4z M1,5.73c-0.15,0.12-0.21,0.34-0.23,0.5C0.77,6.29,0.76,6.36,0.76,6.42v8.85
	c0,0.94,0.75,1.92,1.64,2.14L9.8,19.2c0.39,0.09,0.75,0.03,1.02-0.18c0.28-0.22,0.44-0.59,0.44-1.02V9.83
	c0-0.95-0.75-1.94-1.64-2.17c0,0-1.97-0.48-3.98-0.98l-0.5-0.12C3.62,6.19,2.18,5.83,1.61,5.68C1.33,5.61,1.13,5.63,1,5.73L1,5.73z
	 M13.63,4.76H2.37c-0.24,0-0.48,0.06-0.68,0.16C1.72,4.93,1.76,4.94,1.8,4.95C2.41,5.1,4.05,5.51,5.68,5.91L6.2,6.03
	C8.07,6.5,9.81,6.92,9.81,6.92c1.23,0.32,2.22,1.62,2.22,2.91v5.74h1.61c0.89,0,1.61-0.75,1.61-1.66V6.42
	C15.24,5.51,14.52,4.76,13.63,4.76L13.63,4.76z M8.24,11.56c0.86,0,1.56,0.7,1.56,1.57c0,0.86-0.7,1.57-1.56,1.57
	c-0.86,0-1.56-0.7-1.56-1.57C6.68,12.26,7.38,11.56,8.24,11.56L8.24,11.56z M8.24,12.32c-0.44,0-0.8,0.36-0.8,0.8s0.36,0.8,0.8,0.8
	c0.44,0,0.8-0.36,0.8-0.8S8.68,12.32,8.24,12.32L8.24,12.32z"/>
<path class="st1" d="M15.65,8.7c-2.4,0-4.35-1.95-4.35-4.35c0-2.4,1.95-4.35,4.35-4.35S20,1.95,20,4.35C20,6.75,18.05,8.7,15.65,8.7
	L15.65,8.7z"/>
<path class="st2" d="M15.65,1.74c0.21,0,0.39,0.18,0.39,0.39c0,0.02,0,0.03,0,0.05l0,1.8l1.8,0c0.01,0,0.03,0,0.05,0
	c0.21,0,0.39,0.18,0.39,0.39s-0.17,0.39-0.39,0.39c-0.02,0-0.03,0-0.05,0l-1.79,0l0,1.81c0,0.21-0.17,0.39-0.38,0.39
	c-0.21,0-0.39-0.17-0.39-0.39l0-1.81l-1.78,0c-0.01,0-0.03,0-0.05,0c-0.21,0-0.39-0.18-0.39-0.39c0-0.22,0.17-0.39,0.39-0.39
	c0.02,0,0.03,0,0.05,0l1.78,0l0-1.81c0-0.01,0-0.03,0-0.05C15.26,1.91,15.43,1.74,15.65,1.74L15.65,1.74z"/>
</svg>
