<?xml version="1.0" encoding="utf-8"?>
<!-- Generator: Adobe Illustrator 27.2.0, SVG Export Plug-In . SVG Version: 6.00 Build 0)  -->
<svg version="1.1" id="Capa_1" xmlns="http://www.w3.org/2000/svg" xmlns:xlink="http://www.w3.org/1999/xlink" x="0px" y="0px"
	 viewBox="0 0 14 20" style="enable-background:new 0 0 14 20;" xml:space="preserve">
<style type="text/css">
	.st0{fill:#E2F4FA;}
	.st1{fill:#00A7F2;}
</style>
<path class="st0" d="M13.16,18.7l-0.97-0.78c-0.15-0.12-0.37-0.12-0.52,0l-1.39,1.11l-1.39-1.11c-0.08-0.06-0.17-0.09-0.26-0.09
	c-0.09,0-0.18,0.03-0.26,0.09L7,19.04l-1.39-1.11c-0.15-0.12-0.37-0.12-0.52,0l-1.39,1.11l-1.39-1.11c-0.15-0.12-0.37-0.12-0.52,0
	L0.84,18.7V0.85h12.33V18.7z"/>
<g>
	<path class="st1" d="M13.58,0H0.42C0.19,0,0,0.19,0,0.42v19.15c0,0.16,0.09,0.31,0.24,0.38C0.29,19.99,0.36,20,0.42,20
		c0.09,0,0.18-0.03,0.26-0.09l1.39-1.11l1.39,1.11c0.15,0.12,0.37,0.12,0.52,0l1.39-1.11l1.39,1.11c0.15,0.12,0.37,0.12,0.52,0
		l1.39-1.11l1.39,1.11c0.15,0.12,0.37,0.12,0.52,0l1.39-1.11l1.39,1.11c0.13,0.1,0.3,0.12,0.44,0.05c0.14-0.07,0.24-0.22,0.24-0.38
		V0.42C14,0.19,13.81,0,13.58,0z M13.16,18.7l-0.97-0.78c-0.15-0.12-0.37-0.12-0.52,0l-1.39,1.11l-1.39-1.11
		c-0.08-0.06-0.17-0.09-0.26-0.09c-0.09,0-0.18,0.03-0.26,0.09L7,19.04l-1.39-1.11c-0.15-0.12-0.37-0.12-0.52,0l-1.39,1.11
		l-1.39-1.11c-0.15-0.12-0.37-0.12-0.52,0L0.84,18.7V0.85h12.33V18.7z"/>
	<path class="st1" d="M9.27,13.34h1.37c0.23,0,0.42-0.19,0.42-0.42s-0.19-0.42-0.42-0.42H9.27c-0.23,0-0.42,0.19-0.42,0.42
		S9.04,13.34,9.27,13.34z"/>
	<path class="st1" d="M9.27,10.84h1.37c0.23,0,0.42-0.19,0.42-0.42c0-0.23-0.19-0.42-0.42-0.42H9.27c-0.23,0-0.42,0.19-0.42,0.42
		C8.85,10.65,9.04,10.84,9.27,10.84z"/>
	<path class="st1" d="M9.27,8.34h1.37c0.23,0,0.42-0.19,0.42-0.42s-0.19-0.42-0.42-0.42H9.27c-0.23,0-0.42,0.19-0.42,0.42
		S9.04,8.34,9.27,8.34z"/>
	<path class="st1" d="M9.27,5.09h1.37c0.23,0,0.42-0.19,0.42-0.42c0-0.23-0.19-0.42-0.42-0.42H9.27c-0.23,0-0.42,0.19-0.42,0.42
		C8.85,4.9,9.04,5.09,9.27,5.09z"/>
	<path class="st1" d="M7,9.24H2.89c-0.23,0-0.42,0.19-0.42,0.42c0,0.23,0.19,0.42,0.42,0.42H7c0.23,0,0.42-0.19,0.42-0.42
		C7.42,9.43,7.23,9.24,7,9.24z"/>
	<path class="st1" d="M2.89,5.09h4.94c0.23,0,0.42-0.19,0.42-0.42c0-0.23-0.19-0.42-0.42-0.42H2.89c-0.23,0-0.42,0.19-0.42,0.42
		C2.47,4.9,2.66,5.09,2.89,5.09z"/>
	<path class="st1" d="M5.36,11.74H2.89c-0.23,0-0.42,0.19-0.42,0.42c0,0.23,0.19,0.42,0.42,0.42h2.47c0.23,0,0.42-0.19,0.42-0.42
		C5.77,11.93,5.59,11.74,5.36,11.74z"/>
	<path class="st1" d="M2.89,7.59h3.29c0.23,0,0.42-0.19,0.42-0.42c0-0.23-0.19-0.42-0.42-0.42H2.89c-0.23,0-0.42,0.19-0.42,0.42
		C2.47,7.4,2.66,7.59,2.89,7.59z"/>
</g>
</svg>
