<?xml version="1.0" encoding="utf-8"?>
<!-- Generator: Adobe Illustrator 22.0.1, SVG Export Plug-In . SVG Version: 6.00 Build 0)  -->
<svg version="1.1" id="Layer_1" xmlns="http://www.w3.org/2000/svg" xmlns:xlink="http://www.w3.org/1999/xlink" x="0px" y="0px"
	 viewBox="0 0 180 40" style="enable-background:new 0 0 180 40;" xml:space="preserve">
<style type="text/css">
	.st0{fill:#E9004C;}
	.st1{fill:#00263D;}
</style>
<path class="st0" d="M179.8,11.8h-17.1c-1.9,0-3.6,1.4-3.8,3.3c-0.3,2.6-2.3,4.1-4.7,4.2c-2.6,0-4.7-2.1-4.7-4.7s2.1-4.7,4.7-4.7
	c1.7,0,3.2,0.9,4,2.3c0.1,0.1,0.2,0.1,0.3,0c0.5-0.6,1.1-1.1,1.8-1.4c0.1,0,0.1-0.2,0.1-0.3c-1.3-2-3.6-3.3-6.2-3.3
	c-4.1,0-7.4,3.3-7.5,7.5c0,4.1,3.3,7.5,7.5,7.5c3.8-0.1,7-2.6,7.4-6.6c0.1-0.5,0.5-0.9,1.1-0.9h14.6v2c0,1.1-0.3,2.7-1.7,2.7
	s-1.7-1.6-1.7-2.7v-0.6c0-0.1-0.1-0.2-0.2-0.2h-2.4c-0.1,0-0.2,0.1-0.2,0.2v0.5c0,1.1-0.3,2.7-1.7,2.7s-1.7-1.6-1.7-2.7v-0.5
	c0-0.1-0.1-0.2-0.2-0.2h-2.4c-0.1,0-0.2,0.1-0.2,0.2v0.5c0,2.7,1.5,5.4,4.4,5.4c1.2,0,2.3-0.5,3-1.4c0.8,0.9,1.8,1.4,3,1.4
	c3,0,4.4-2.8,4.4-5.4V12C180.1,11.9,180,11.8,179.8,11.8"/>
<path class="st1" d="M50.9,14.3c-4.6,0-7.7,3.3-7.7,8.2s3.3,8.2,8,8.2c2.3,0,4.4-0.5,6.3-2.1c0.1-0.1,0.1-0.2,0-0.2L56,26.3
	c-0.1-0.1-0.2-0.1-0.3,0c-1.3,1-2.8,1.5-4.3,1.5c-3,0-4.8-2.2-4.8-5c0-2.7,1.3-5.3,4.3-5.3c2.2,0,3.6,1.4,3.9,3.8h-6.5
	c-0.1,0-0.2,0.1-0.2,0.1c-0.1,0.7-0.1,1.5,0,2.3c0,0.1,0.1,0.1,0.2,0.1H58c0.1,0,0.2-0.1,0.2-0.2v-1.1
	C58.2,17.6,55.2,14.3,50.9,14.3 M34.1,14.3c-2.2,0-3.8,0.9-4.9,2.3v-1.8c0-0.1-0.1-0.2-0.2-0.2h-3c-0.1,0-0.2,0.1-0.2,0.2v22.1
	c0,0.1,0.1,0.2,0.2,0.2h3c0.1,0,0.2-0.1,0.2-0.2V21.6c0-2.4,2.2-4.1,4.5-4.1c2.9,0,4.7,2.3,4.7,5s-1.8,5-4.7,5c-1,0-2-0.3-2.7-0.8
	c-0.1-0.1-0.3,0-0.3,0.1v2.8c0,0.1,0.1,0.2,0.2,0.3c0.9,0.5,1.9,0.8,3.2,0.8c4.3,0,7.8-3.4,7.8-8.2S38.4,14.3,34.1,14.3 M68.4,14.3
	c-1.6,0-3.5,0.5-4.7,2.3v-1.8c0-0.1-0.1-0.2-0.2-0.2h-3c-0.1,0-0.2,0.1-0.2,0.2V30c0,0.1,0.1,0.2,0.2,0.2h3c0.1,0,0.2-0.1,0.2-0.2
	v-8.4c0-2.7,1.8-4.1,4-4.1c2.3,0,3.6,1.5,3.6,4.1v8.5c0,0.1,0.1,0.2,0.2,0.2h3c0.1,0,0.2-0.1,0.2-0.2v-9.6
	C74.7,16.8,72.1,14.3,68.4,14.3 M12.9,7.1c-0.1,0-0.2,0.1-0.2,0.2v3.2c0,0.1,0.1,0.2,0.2,0.2c4.1,0.4,7.1,3.7,7.1,8.2
	c0,4.9-3.4,8.3-8,8.3s-8-3.4-8-8.3c0-4.5,2.9-7.8,7.1-8.2c0.1,0,0.2-0.1,0.2-0.2V7.3c-0.2-0.1-0.3-0.2-0.4-0.2
	C4.4,7.6,0,12.4,0,18.8c0,6.8,4.9,11.8,11.9,11.8s11.9-5,11.9-11.8C23.8,12.4,19.3,7.6,12.9,7.1 M143.9,29.9l-6.3-7.9l6.2-7
	c0.1-0.1,0-0.3-0.1-0.3H140c-0.1,0-0.2,0-0.3,0.1l-5,5.8h-1.4V7.7c0-0.1-0.1-0.2-0.2-0.2h-3c-0.1,0-0.2,0.1-0.2,0.2V30
	c0,0.1,0.1,0.2,0.2,0.2h3c0.1,0,0.2-0.1,0.2-0.2v-6.4h1.4l5.1,6.4c0.1,0.1,0.2,0.1,0.3,0.1h3.7C144,30.2,144,30,143.9,29.9
	 M121.1,14.3c-1.6,0-3.5,0.5-4.7,2.3v-1.8c0-0.1-0.1-0.2-0.2-0.2h-3c-0.1,0-0.2,0.1-0.2,0.2V30c0,0.1,0.1,0.2,0.2,0.2h3
	c0.1,0,0.2-0.1,0.2-0.2v-8.4c0-2.7,1.8-4.1,4-4.1c2.3,0,3.6,1.5,3.6,4.1v8.5c0,0.1,0.1,0.2,0.2,0.2h3c0.1,0,0.2-0.1,0.2-0.2v-9.6
	C127.4,16.8,124.8,14.3,121.1,14.3 M110.3,14.7h-3c-0.1,0-0.2,0.1-0.2,0.2v1.7c-1.1-1.4-2.6-2.3-4.9-2.3c-4.3,0-7.8,3.4-7.8,8.2
	s3.4,8.2,7.8,8.2c1.3,0,2.3-0.3,3.2-0.8c0.1-0.1,0.2-0.2,0.2-0.3v-2.8c0-0.1-0.2-0.2-0.3-0.1c-0.7,0.5-1.7,0.8-2.7,0.8
	c-2.9,0-4.7-2.3-4.7-5s1.8-5,4.7-5c2.3,0,4.5,1.7,4.5,4.1V30c0,0.1,0.1,0.2,0.2,0.2h3c0.1,0,0.2-0.1,0.2-0.2V14.8
	C110.5,14.7,110.4,14.7,110.3,14.7 M85.5,14.3c-1.3,0-2.3,0.3-3.2,0.8c-0.1,0.1-0.2,0.2-0.2,0.3v2.7c0,0.1,0.2,0.2,0.3,0.1
	c0.7-0.5,1.7-0.8,2.7-0.8c2.9,0,4.7,2.3,4.7,5s-1.8,5-4.7,5c-2.3,0-4.5-1.7-4.5-4.1V7.7c0-0.1-0.1-0.2-0.2-0.2h-3
	c-0.1,0-0.2,0.1-0.2,0.2V30c0,0.1,0.1,0.2,0.2,0.2h3c0.1,0,0.2-0.1,0.2-0.2v-1.7c1.1,1.4,2.6,2.3,4.9,2.3c4.3,0,7.8-3.4,7.8-8.2
	C93.2,17.7,89.8,14.3,85.5,14.3"/>
</svg>
