<?xml version="1.0" encoding="utf-8"?>
<!-- Generator: Adobe Illustrator 21.1.0, SVG Export Plug-In . SVG Version: 6.00 Build 0)  -->
<svg version="1.1" id="Layer_1" xmlns="http://www.w3.org/2000/svg" xmlns:xlink="http://www.w3.org/1999/xlink" x="0px" y="0px"
	 viewBox="0 0 179.9 39.8" style="enable-background:new 0 0 179.9 39.8;" xml:space="preserve">
<style type="text/css">
	.st0{fill:#FF0049;}
	.st1{fill:#FFFFFF;}
</style>
<g id="Layer_1-2">
	<path class="st0" d="M179.8,4.7h-17.1c-1.9,0-3.6,1.4-3.8,3.3c-0.3,2.6-2.6,4.5-5.2,4.2s-4.5-2.6-4.2-5.2c0.3-2.4,2.3-4.2,4.7-4.2
		c1.7,0,3.2,0.9,4,2.3c0.1,0.1,0.2,0.1,0.3,0c0,0,0,0,0,0c0.5-0.6,1.1-1.1,1.8-1.4c0.1,0,0.1-0.2,0.1-0.3c-1.4-2.1-3.7-3.3-6.2-3.3
		c-4.1,0-7.5,3.4-7.5,7.5s3.4,7.5,7.5,7.5l0,0c3.8,0.1,7-2.8,7.4-6.6c0.1-0.5,0.6-0.9,1.1-0.9h14.6v2c0,1.1-0.3,2.7-1.7,2.7
		s-1.7-1.6-1.7-2.7V9c0-0.1-0.1-0.2-0.2-0.2h-2.4c-0.1,0-0.2,0.1-0.2,0.2v0.5c0,1.1-0.3,2.7-1.7,2.7s-1.7-1.6-1.7-2.7V9
		c0-0.1-0.1-0.2-0.2-0.2h-2.4c-0.1,0-0.2,0.1-0.2,0.2v0.5c0,2.7,1.5,5.4,4.4,5.4l0,0c1.2,0,2.3-0.5,3-1.4c0.7,0.9,1.8,1.4,3,1.4l0,0
		c3,0,4.4-2.8,4.4-5.4V4.9C180,4.8,179.9,4.7,179.8,4.7"/>
	<path class="st1" d="M50.9,7.2c-4.6,0-7.7,3.3-7.7,8.2s3.3,8.2,8,8.2c2.3,0.1,4.5-0.6,6.3-2.1c0.1-0.1,0.1-0.2,0-0.2L56,19.2
		c-0.1-0.1-0.2-0.1-0.3,0c0,0,0,0,0,0c-1.2,1-2.7,1.5-4.3,1.5c-2.6,0.1-4.7-1.9-4.8-4.5c0-0.2,0-0.3,0-0.5c0-2.7,1.3-5.3,4.3-5.3
		c2.2,0,3.6,1.4,3.9,3.8h-6.5c-0.1,0-0.1,0-0.2,0.1c-0.1,0.8-0.1,1.5,0,2.3c0,0.1,0.1,0.1,0.2,0.1H58c0.1,0,0.2-0.1,0.2-0.2v-1.1
		C58.2,10.5,55.2,7.2,50.9,7.2"/>
	<path class="st1" d="M34.1,7.2c-1.9-0.1-3.7,0.8-4.9,2.3V7.7c0-0.1-0.1-0.2-0.2-0.2h-3c-0.1,0-0.2,0.1-0.2,0.2v22.1
		c0,0.1,0.1,0.2,0.2,0.2h3c0.1,0,0.2-0.1,0.2-0.2V14.5c0.1-2.4,2.1-4.2,4.5-4.1c2.6,0,4.7,2.1,4.7,4.7c0,0.1,0,0.2,0,0.3
		c0.2,2.6-1.8,4.8-4.4,5c-0.1,0-0.2,0-0.3,0c-1,0-1.9-0.3-2.7-0.8c-0.1-0.1-0.2,0-0.3,0c0,0,0,0,0,0.1v2.8c0,0.1,0.1,0.2,0.2,0.3
		c1,0.5,2.1,0.8,3.2,0.8c4.3,0,7.8-3.6,7.8-7.9c0-0.1,0-0.2,0-0.3c0.2-4.3-3.2-8-7.5-8.2C34.3,7.2,34.2,7.2,34.1,7.2"/>
	<path class="st1" d="M68.4,7.2c-1.9-0.1-3.6,0.8-4.7,2.3V7.7c0-0.1-0.1-0.2-0.2-0.2h-3c-0.1,0-0.2,0.1-0.2,0.2v15.2
		c0,0.1,0.1,0.2,0.2,0.2h3c0.1,0,0.2-0.1,0.2-0.2v-8.4c-0.2-2.1,1.4-3.9,3.5-4.1c0.2,0,0.3,0,0.5,0c2.3,0,3.6,1.5,3.6,4.1V23
		c0,0.1,0.1,0.2,0.2,0.2h3c0.1,0,0.2-0.1,0.2-0.2v-9.6c0.1-3.3-2.5-6.1-5.8-6.2C68.7,7.2,68.6,7.2,68.4,7.2"/>
	<path class="st1" d="M12.9,0c-0.1,0-0.2,0.1-0.2,0.2v3.2c0,0.1,0.1,0.2,0.2,0.2c4.2,0.4,7.3,4,7.1,8.2c0,4.9-3.4,8.3-8,8.3
		s-8-3.4-8-8.3C4,7.3,6.9,4,11.1,3.6c0.1,0,0.2-0.1,0.2-0.2V0.2C11.1,0.1,11,0,10.9,0C4.7,0.2-0.2,5.5,0,11.7
		c0,6.8,4.9,11.8,11.9,11.8s11.9-5,11.9-11.8C24,5.5,19.1,0.3,12.9,0"/>
	<path class="st1" d="M143.9,22.8l-6.3-7.9l6.2-7c0.1-0.1,0-0.2,0-0.3c0,0,0,0-0.1,0H140c-0.1,0-0.2,0-0.3,0.1l-5,5.8h-1.4V0.6
		c0-0.1-0.1-0.2-0.2-0.2h-3c-0.1,0-0.2,0.1-0.2,0.2v22.3c0,0.1,0.1,0.2,0.2,0.2h3c0.1,0,0.2-0.1,0.2-0.2v-6.4h1.4l5.1,6.4
		c0.1,0.1,0.2,0.1,0.3,0.1h3.7C144,23.1,144,22.9,143.9,22.8"/>
	<path class="st1" d="M121.1,7.2c-1.9-0.1-3.6,0.8-4.7,2.3V7.7c0-0.1-0.1-0.2-0.2-0.2h-3c-0.1,0-0.2,0.1-0.2,0.2v15.2
		c0,0.1,0.1,0.2,0.2,0.2h3c0.1,0,0.2-0.1,0.2-0.2v-8.4c-0.2-2.1,1.4-3.9,3.5-4.1c0.2,0,0.3,0,0.5,0c2.3,0,3.6,1.5,3.6,4.1V23
		c0,0.1,0.1,0.2,0.2,0.2h3c0.1,0,0.2-0.1,0.2-0.2v-9.6c0.1-3.3-2.5-6.1-5.8-6.2C121.4,7.2,121.3,7.2,121.1,7.2"/>
	<path class="st1" d="M110.3,7.6h-3c-0.1,0-0.2,0.1-0.2,0.2v1.7c-1.2-1.5-3-2.4-4.9-2.3c-4.3,0-7.8,3.6-7.8,7.9c0,0.1,0,0.2,0,0.3
		c0,4.8,3.4,8.2,7.8,8.2c1.1,0,2.2-0.3,3.2-0.8c0.1-0.1,0.2-0.2,0.2-0.3v-2.8c0-0.1-0.1-0.2-0.2-0.1c0,0,0,0-0.1,0
		c-0.8,0.5-1.7,0.8-2.7,0.8c-2.6,0-4.7-2.1-4.7-4.7c0-0.1,0-0.2,0-0.3c-0.2-2.6,1.8-4.8,4.4-5c0.1,0,0.2,0,0.3,0
		c2.4-0.1,4.4,1.7,4.5,4.1v8.4c0,0.1,0.1,0.2,0.2,0.2h3c0.1,0,0.2-0.1,0.2-0.2V7.7C110.5,7.6,110.4,7.6,110.3,7.6"/>
	<path class="st1" d="M85.5,7.2c-1.1,0-2.2,0.3-3.2,0.8c-0.1,0.1-0.2,0.2-0.2,0.3V11c0,0.1,0.1,0.2,0.2,0.1c0,0,0,0,0.1,0
		c0.8-0.5,1.7-0.8,2.7-0.8c2.6,0,4.7,2.1,4.7,4.7c0,0.1,0,0.2,0,0.3c0.2,2.6-1.8,4.8-4.4,5c-0.1,0-0.2,0-0.3,0
		c-2.4,0.1-4.4-1.7-4.5-4.1V0.6c0-0.1-0.1-0.2-0.2-0.2h-3c-0.1,0-0.2,0.1-0.2,0.2v22.3c0,0.1,0.1,0.2,0.2,0.2h3
		c0.1,0,0.2-0.1,0.2-0.2v-1.7c1.2,1.5,3,2.4,4.9,2.3c4.3,0,7.8-3.6,7.8-7.9c0-0.1,0-0.2,0-0.3C93.2,10.6,89.8,7.2,85.5,7.2"/>
	<path class="st1" d="M168.3,32.3c-0.6,0-1.2,0.3-1.5,0.8v-0.7H166v5.2h0.8v-2.9c-0.1-0.8,0.5-1.5,1.2-1.6c0,0,0.1,0,0.2,0
		c0.3,0,0.6,0.1,0.9,0.2l0.2-0.8C169,32.4,168.6,32.3,168.3,32.3 M161.9,33c0.9,0,1.6,0.7,1.6,1.6c0,0,0,0,0,0h-3.3
		C160.3,33.7,161,33,161.9,33 M162,32.3c-1.5,0-2.7,1.2-2.7,2.7s1.2,2.7,2.7,2.7c0.8,0,1.5-0.2,2.1-0.8l-0.4-0.6
		c-0.4,0.4-1,0.7-1.6,0.7c-1,0-1.8-0.7-1.8-1.7h4.2V35C164.6,33.6,163.5,32.4,162,32.3C162,32.3,162,32.3,162,32.3 M155.2,33.1
		c1,0,1.9,0.9,1.9,1.9c0,1-0.9,1.9-1.9,1.9c-1,0-1.9-0.9-1.9-1.9C153.3,34,154.2,33.1,155.2,33.1 M155.1,32.3
		c-1.5,0-2.7,1.2-2.7,2.7s1.2,2.7,2.7,2.7c0.7,0.1,1.5-0.3,1.9-0.9v0.8h0.8v-7.9H157v3.5C156.5,32.6,155.8,32.3,155.1,32.3
		 M148.9,32.3c-0.7,0-1.4,0.3-1.8,0.8v-0.7h-0.8v5.2h0.8v-2.9c0-0.8,0.6-1.6,1.4-1.6c0.1,0,0.1,0,0.2,0c0.8-0.1,1.4,0.5,1.5,1.3
		c0,0.1,0,0.2,0,0.3v3h0.8v-3.2c0.2-1.1-0.6-2-1.6-2.2C149.2,32.3,149.1,32.3,148.9,32.3 M141.8,33.1c1,0,1.9,0.9,1.9,1.9
		c0,1-0.9,1.9-1.9,1.9c-1,0-1.9-0.9-1.9-1.9c0-1,0.8-1.9,1.8-1.9C141.7,33.1,141.8,33.1,141.8,33.1 M144.4,37.6v-5.2h-0.8v0.8
		c-0.5-0.6-1.2-0.9-1.9-0.9c-1.5,0-2.7,1.2-2.7,2.7s1.2,2.7,2.7,2.7c0.7,0.1,1.5-0.3,1.9-0.9v0.8L144.4,37.6z M138,33.2v-0.7h-2.2
		v-1.7H135v1.7h-1.1v0.7h1.1v2.6c-0.1,0.9,0.5,1.8,1.4,1.9c0.1,0,0.3,0,0.4,0c0.5,0,1.1-0.2,1.5-0.5l-0.4-0.6
		c-0.3,0.2-0.7,0.4-1.1,0.4c-0.6,0-1-0.4-1-1.2v-2.6H138z M130.5,32.3c-0.7,0-1.4,0.3-1.8,0.8v-0.7H128v5.2h0.8v-2.9
		c0-0.8,0.6-1.6,1.4-1.6c0.1,0,0.1,0,0.2,0c0.8-0.1,1.4,0.5,1.5,1.3c0,0.1,0,0.2,0,0.3v3h0.8v-3.2c0.1-1.1-0.7-2.1-1.8-2.2
		C130.8,32.3,130.6,32.3,130.5,32.3 M123.4,33.1c1,0,1.9,0.8,1.9,1.9c0,1-0.8,1.9-1.9,1.9c0,0,0,0,0,0c-1,0-1.9-0.9-1.9-1.9
		C121.5,34,122.4,33.1,123.4,33.1 M126.1,37.6v-5.2h-0.8v0.8c-0.5-0.6-1.2-0.9-1.9-0.9c-1.5,0-2.7,1.2-2.7,2.7s1.2,2.7,2.7,2.7
		c0.7,0.1,1.5-0.3,1.9-0.9v0.8H126.1z M118.8,31.4l0.5-0.7c-0.8-0.6-1.8-0.8-2.8-0.8c-1.6,0-2.9,0.8-2.9,2.3c0,1.3,1,1.9,2.3,2
		l0.8,0.1c1.2,0.1,1.9,0.5,1.9,1.3s-0.9,1.4-2.1,1.4c-0.9,0-1.8-0.3-2.5-0.9l-0.5,0.7c0.9,0.7,1.9,1,3,1c1.7,0,3-0.8,3-2.3
		c0-1.3-1.1-1.9-2.4-2l-0.7-0.1c-1.2-0.1-1.8-0.5-1.8-1.2c0-0.9,0.8-1.4,2-1.4C117.4,30.7,118.2,30.9,118.8,31.4 M106.5,33.1
		c1,0,1.9,0.9,1.9,1.9c0,1-0.9,1.9-1.9,1.9s-1.9-0.9-1.9-1.9c0-1,0.8-1.9,1.8-1.9C106.4,33.1,106.5,33.1,106.5,33.1 M106.5,32.3
		c-1.5,0-2.7,1.1-2.7,2.6c0,0,0,0.1,0,0.1c0,1.5,1.2,2.7,2.7,2.7c0,0,0,0,0,0c1.5,0,2.7-1.1,2.7-2.6c0,0,0-0.1,0-0.1
		C109.2,33.5,108,32.3,106.5,32.3C106.5,32.3,106.5,32.3,106.5,32.3 M99.9,33.1c1,0,1.9,0.9,1.9,1.9v0c0,1-0.9,1.9-1.9,1.9
		c-1,0-1.9-0.9-1.9-1.9c0-1,0.8-1.9,1.8-1.9C99.8,33.1,99.9,33.1,99.9,33.1 M100,32.3c-0.7-0.1-1.5,0.3-1.9,0.9v-0.8h-0.8v7.4h0.8
		v-3c0.5,0.6,1.2,0.9,1.9,0.9c1.4,0,2.6-1.1,2.6-2.5c0-0.1,0-0.1,0-0.2C102.6,33.6,101.5,32.4,100,32.3
		C100.1,32.3,100,32.3,100,32.3 M95.4,35.5v-3h-0.8v3c0,0.8-0.7,1.5-1.5,1.5s-1.5-0.7-1.5-1.5v-3h-0.8v3c0,1.3,1,2.3,2.3,2.3
		C94.4,37.8,95.4,36.8,95.4,35.5C95.4,35.5,95.4,35.5,95.4,35.5 M88.6,32.3c-0.6,0-1.2,0.3-1.5,0.8v-0.7h-0.8v5.2h0.8v-2.9
		c-0.1-0.8,0.5-1.5,1.2-1.6c0,0,0.1,0,0.2,0c0.3,0,0.6,0.1,0.9,0.2l0.2-0.8C89.3,32.4,88.9,32.3,88.6,32.3 M80.9,29.8
		c-2.2,0-4,1.7-4,4c0,2.2,1.7,4,3.9,4c2.3,0,3.7-1.7,3.7-4v-0.2h-3.4v0.8h2.4c0,1.4-1.1,2.5-2.5,2.5c-0.1,0-0.2,0-0.3,0
		c-1.7,0-3-1.3-3-3c0,0,0-0.1,0-0.1c-0.1-1.6,1.1-3,2.7-3.1c0.1,0,0.2,0,0.3,0c0.9,0,1.8,0.4,2.3,1.1l0.7-0.6
		C83.1,30.3,82,29.7,80.9,29.8"/>
</g>
</svg>
