<?xml version="1.0" encoding="UTF-8"?>
<svg xmlns="http://www.w3.org/2000/svg" version="1.1" viewBox="0 0 176.9 172">
  <defs>
    <style>
      .cls-1 {
        fill: #112c44;
        fill-rule: evenodd;
      }
    </style>
  </defs>
  <!-- Generator: Adobe Illustrator 28.6.0, SVG Export Plug-In . SVG Version: 1.2.0 Build 709)  -->
  <g>
    <g id="Capa_1">
      <path class="cls-1" d="M124.6,31.7l15.6-15.1,2,1.4c.4.3,39.2,28.2,16.2,69.8-.4.6-5.8,9.7-18.1,17.8,11.4.9,19.4,3.6,23.6,8.1,2.9,3,3.1,5.9,3.1,6.4v1.5l-1,1c-.1.1-8.6,8-17.4,16.6l-2.9,2.9c-2.4,2.4-4.8,4.8-7,7-6.7,6.9-11.8,8.6-15.2,8.6s-4.9-1.4-5.3-1.7l-16.8-17c-7.1.4-37.3.9-59-18.3-12.9-11.4-20.3-27.7-21.8-48.3-.3-2.4-.5-5.4-.2-8.6l-9.6-11.6,11.8,1.2c3-8,9.2-15.3,20.8-17.6,1-.2,25.4-5.5,43.8,28.6l6.1-52.4,2.4-.3c.2,0,21.3-2.5,28.9,20h0ZM140.7,24.9l-65.6,63.7-4.2-4.7,12.9-12.5v-.3c-16.4-33.4-38.2-29.1-39.1-28.9-21.3,4.2-18.2,28.4-18.1,29.5,1.5,19,8.1,33.8,19.7,44.1,22.2,19.7,55.6,16.8,56,16.7h1.4c0-.1,18.5,18.7,18.5,18.7.2,0,4,1.7,12.2-6.7,9-9.3,21.8-21.3,26.1-25.4-1.7-2.7-9-7.4-29.5-7.4h-1.9c-5.4,2.3-11.6,4.3-18.6,5.4l-1-6.4c30.9-5.2,43.6-26.1,43.7-26.3,17.4-31.6-5.4-53.8-12.5-59.6h0ZM43.8,52.1c2.6,0,4.6,2.1,4.6,4.8s-2.1,4.8-4.6,4.8-4.6-2.1-4.6-4.8,2.1-4.8,4.6-4.8h0ZM98.7,18l-5.1,43.6,25.8-25-.2-1.2c-4.2-15.2-15.6-17.2-20.6-17.4h0Z"/>
    </g>
  </g>
</svg>